<svg id="Layer_1" data-name="Layer 1" xmlns="http://www.w3.org/2000/svg" viewBox="0 0 512 512"><title>thermometer2</title><path d="M0,256C0,114.61,114.61,0,256,0S512,114.63,512,256,397.38,512,256,512,0,397.39,0,256Z" fill="#00b6eb"/><path d="M299.37,275.89V141.38c0-18.82-13.88-34.08-31-34.08s-31,15.26-31,34.08V275.89a68.15,68.15,0,1,0,62,0Zm-31-156.2c10.25,0,18.59,9.73,18.59,21.68V243.61H249.8V141.38C249.8,129.42,258.14,119.7,268.39,119.7Z" fill="#fff"/><rect x="175.46" y="132.09" width="49.57" height="12.39" fill="#fff"/><rect x="175.46" y="156.87" width="49.57" height="12.39" fill="#fff"/><rect x="175.46" y="181.65" width="49.57" height="12.39" fill="#fff"/><rect x="175.46" y="206.43" width="49.57" height="12.39" fill="#fff"/><rect x="175.46" y="231.22" width="49.57" height="12.39" fill="#fff"/></svg>