<svg id="Layer_1" data-name="Layer 1" xmlns="http://www.w3.org/2000/svg" viewBox="0 0 512 512"><title>snowflake</title><path d="M0,256C0,114.61,114.61,0,256,0S512,114.63,512,256,397.38,512,256,512,0,397.39,0,256Z" fill="#ffc412"/><path d="M124.12,266l22.72-.22-20,20.37a8.81,8.81,0,0,0,12.58,12.33l32.32-32.91,63.11-.56-43.61,44.38-46.1.43a8.79,8.79,0,1,0,.12,17.58l28.53-.25L157.24,344a8.74,8.74,0,0,0,.09,12.42,8.78,8.78,0,0,0,12.46-.13l16.54-16.84.25,28.52a8.81,8.81,0,0,0,17.62-.16l-.43-46.11,43.61-44.43.55,63.16-32.31,32.88a8.8,8.8,0,1,0,12.55,12.33l20-20.33.18,22.74a8.81,8.81,0,1,0,17.61-.18l-.21-22.77,20.36,20a8.78,8.78,0,0,0,12.46-.13,8.76,8.76,0,0,0-.13-12.42l-32.91-32.35L265,277.12l44.43,43.65.4,46.11a8.81,8.81,0,1,0,17.61-.18l-.25-28.53L344,354.75a8.81,8.81,0,1,0,12.33-12.58l-16.84-16.54,28.49-.26a8.81,8.81,0,1,0-.13-17.61l-46.14.43-44.39-43.61,63.13-.56,32.91,32.36a8.8,8.8,0,0,0,12.33-12.55l-20.37-20,22.78-.22a8.78,8.78,0,1,0-.18-17.57l-22.72.21,20-20.36a8.8,8.8,0,0,0-12.55-12.34l-32.31,32.92-63.11.55,43.57-44.38,46.14-.38a8.81,8.81,0,0,0-.13-17.61l-28.57.25L354.75,168a8.79,8.79,0,0,0-12.54-12.33l-16.54,16.88L325.41,144a8.81,8.81,0,1,0-17.61.18l.43,46.1-43.61,44.38-.56-63.07,32.32-32.91a8.8,8.8,0,1,0-12.55-12.33l-20,20.36-.22-22.77a8.81,8.81,0,1,0-17.61.18l.21,22.72-20.36-20a8.79,8.79,0,1,0-12.33,12.54l32.91,32.32.55,63.11-44.38-43.61-.43-46.1a8.78,8.78,0,0,0-17.57.12l.25,28.58L168,157.24a8.8,8.8,0,0,0-12.33,12.55l16.88,16.59-28.53.21a8.81,8.81,0,1,0,.18,17.62l46.1-.38,44.38,43.57-63.11.55-32.87-32.31a8.81,8.81,0,0,0-12.37,12.54l20.36,20-22.72.21a8.81,8.81,0,0,0,.18,17.62Z" fill="#fff"/></svg>