<svg id="Layer_1" data-name="Layer 1" xmlns="http://www.w3.org/2000/svg" viewBox="0 0 512 512"><title>thermometer3</title><path d="M0,256C0,114.61,114.61,0,256,0S512,114.63,512,256,397.38,512,256,512,0,397.39,0,256Z" fill="#ff5242"/><rect x="177.95" y="135.92" width="48.03" height="12.01" fill="#fff"/><rect x="177.95" y="159.94" width="48.03" height="12.01" fill="#fff"/><rect x="177.95" y="183.95" width="48.03" height="12.01" fill="#fff"/><rect x="177.95" y="207.97" width="48.03" height="12.01" fill="#fff"/><rect x="177.95" y="231.98" width="48.03" height="12.01" fill="#fff"/><path d="M298,275.27V144.93c0-18.24-13.45-33-30-33s-30,14.78-30,33V275.27a66,66,0,1,0,60,0ZM268,123.92c9.8,0,17.79,9.19,18,20.57H250C250.22,133.1,258.2,123.92,268,123.92Z" fill="#fff"/></svg>