<svg id="Layer_1" data-name="Layer 1" xmlns="http://www.w3.org/2000/svg" viewBox="0 0 512 512"><title>grain</title><circle cx="256" cy="256" r="256" fill="#ec582d"/><path d="M307.48,153.72A11.47,11.47,0,0,0,320,170.34a11.46,11.46,0,0,0-12.55-16.62Z" fill="#feeac5"/><path d="M324.52,159a11.46,11.46,0,0,0,2.86-20.62A11.47,11.47,0,0,0,324.52,159Z" fill="#feeac5"/><path d="M305.09,170.91a11.47,11.47,0,0,0,12.56,16.61,11.47,11.47,0,0,0-12.56-16.61Z" fill="#feeac5"/><path d="M302.7,188.09a11.46,11.46,0,0,0,12.55,16.61,11.46,11.46,0,0,0-12.55-16.61Z" fill="#feeac5"/><path d="M300.32,205.29a11.46,11.46,0,0,0,12.55,16.6,11.46,11.46,0,0,0-12.55-16.6Z" fill="#feeac5"/><path d="M297.92,222.48a11.46,11.46,0,0,0,12.56,16.59,11.46,11.46,0,0,0-12.56-16.59Z" fill="#feeac5"/><path d="M341.39,158.44A11.46,11.46,0,0,1,324.78,171a11.46,11.46,0,0,1,16.6-12.55Z" fill="#feeac5"/><path d="M339,175.62a11.48,11.48,0,0,1-16.61,12.57A11.47,11.47,0,0,1,339,175.62Z" fill="#feeac5"/><path d="M336.62,192.81A11.46,11.46,0,0,1,320,205.36a11.47,11.47,0,0,1,16.61-12.55Z" fill="#feeac5"/><path d="M334.23,210a11.46,11.46,0,0,1-16.61,12.55A11.46,11.46,0,0,1,334.23,210Z" fill="#feeac5"/><path d="M331.85,227.18a11.47,11.47,0,0,1-16.61,12.56,11.47,11.47,0,0,1,16.61-12.56Z" fill="#feeac5"/><path d="M250.26,91.56a11.47,11.47,0,0,0,15.48,13.93,11.47,11.47,0,0,0-15.48-13.93Z" fill="#feeac5"/><path d="M268,93.49a11.46,11.46,0,0,0-1.11-20.78A11.46,11.46,0,0,0,268,93.49Z" fill="#feeac5"/><path d="M251.19,108.9a11.47,11.47,0,0,0,15.49,13.92,11.48,11.48,0,0,0-15.49-13.92Z" fill="#feeac5"/><path d="M252.11,126.21a11.47,11.47,0,0,0,15.49,13.92,11.47,11.47,0,0,0-15.49-13.92Z" fill="#feeac5"/><path d="M253,143.55a11.47,11.47,0,0,0,15.49,13.92A11.46,11.46,0,0,0,253,143.55Z" fill="#feeac5"/><path d="M254,160.87a11.46,11.46,0,0,0,15.48,13.92A11.46,11.46,0,0,0,254,160.87Z" fill="#feeac5"/><path d="M284.45,89.74a11.46,11.46,0,0,1-13.92,15.48,11.46,11.46,0,0,1,13.92-15.48Z" fill="#feeac5"/><path d="M285.39,107.07a11.47,11.47,0,0,1-13.92,15.49,11.47,11.47,0,0,1,13.92-15.49Z" fill="#feeac5"/><path d="M286.3,124.39a11.46,11.46,0,0,1-13.91,15.48,11.46,11.46,0,0,1,13.91-15.48Z" fill="#feeac5"/><path d="M287.23,141.72a11.46,11.46,0,0,1-13.91,15.48,11.45,11.45,0,0,1,13.91-15.48Z" fill="#feeac5"/><path d="M288.16,159a11.46,11.46,0,0,1-13.91,15.48A11.45,11.45,0,0,1,288.16,159Z" fill="#feeac5"/><path d="M207.8,146.48a11.45,11.45,0,0,0,17.14,11.79,11.46,11.46,0,0,0-17.14-11.79Z" fill="#feeac5"/><path d="M225.63,146.1a11.45,11.45,0,0,0-3.78-20.47,11.46,11.46,0,0,0,3.78,20.47Z" fill="#feeac5"/><path d="M211,163.55a11.46,11.46,0,0,0,17.15,11.8A11.47,11.47,0,0,0,211,163.55Z" fill="#feeac5"/><path d="M214.1,180.61a11.46,11.46,0,0,0,17.15,11.79,11.46,11.46,0,0,0-17.15-11.79Z" fill="#feeac5"/><path d="M217.26,197.67a11.46,11.46,0,0,0,17.15,11.8,11.46,11.46,0,0,0-17.15-11.8Z" fill="#feeac5"/><path d="M220.42,214.73a11.45,11.45,0,0,0,17.15,11.79,11.47,11.47,0,0,0-17.15-11.79Z" fill="#feeac5"/><path d="M241.47,140.25a11.47,11.47,0,0,1-11.8,17.16,11.47,11.47,0,0,1,11.8-17.16Z" fill="#feeac5"/><path d="M244.61,157.33a11.45,11.45,0,0,1-11.8,17.13,11.46,11.46,0,0,1,11.8-17.13Z" fill="#feeac5"/><path d="M247.77,174.38A11.46,11.46,0,0,1,236,191.54a11.47,11.47,0,0,1,11.79-17.16Z" fill="#feeac5"/><path d="M250.93,191.45a11.46,11.46,0,0,1-11.79,17.15,11.45,11.45,0,0,1,11.79-17.15Z" fill="#feeac5"/><path d="M254.08,208.51a11.46,11.46,0,0,1-11.79,17.14,11.46,11.46,0,0,1,11.79-17.14Z" fill="#feeac5"/><path d="M347.39,265.87C311.25,339.94,304,439.29,304,439.29h12.64S327.51,352.57,349.19,293Z" fill="#f5af29"/><path d="M352.8,265.87c9,68.64,25.3,139.09,25.3,139.09s3.6-36.13-7.23-140.9Z" fill="#f5af29"/><path d="M296.23,437.49C230.61,356.2,133.32,202.65,133.32,202.65s46.11,119.22,148.2,234.84Z" fill="#f5af29"/><path d="M305.52,435.14c0,.42-.1.85-.15,1.26l.34-.11C305.69,436.21,305.62,435.82,305.52,435.14Zm-37-249.23c.95,70.53,21.54,204.09,27.69,242.44.88-8.59,2-18.69,3.55-29.79-8.47-56-23.07-160.37-23.27-216.38Z" fill="#f5af29"/><path d="M284.76,411l-5.06-29c-18-64.77-39.09-152.18-35.44-151.58l-7.49,3.41c-2.74,3.18,18.67,92,36.75,156.36Z" fill="#f5af29"/><path d="M306.58,248c-3.11,38.93-4.19,71.94-4.82,106.7l1.86,29.64,4.84-33.74c.72-35.52,1.79-66.08,4.9-101.19Z" fill="#f5af29"/></svg>