<svg id="Layer_1" data-name="Layer 1" xmlns="http://www.w3.org/2000/svg" viewBox="0 0 512 512"><title>horn-of-plenty</title><path d="M256,0C114.62,0,0,114.62,0,256S114.62,512,256,512s256-114.6,256-256S397.38,0,256,0Z" fill="#89914f"/><path d="M115.71,223.78c5-4.33,13.7-8.08,17.93-14.68,2.37-4.34,6.89-8.57,8.08-14.19a34.28,34.28,0,0,0,.72-6c-.11-1.28,0-2.58-2.36-1.2-2.8,1.7-6.51,1.56-9.89,1.23-3.81-.4-21-.23-27.49,7.61-3,3.65-6.21,7.49-7.78,11.84-4.93,7.48-3.75,17.53-1.87,26,.93,3.91,2.74,7.78,6.47,10.33.94.72,1.76,1.14,2.19-.87C103.1,235.51,109.31,228.51,115.71,223.78Z" fill="#642d10"/><path d="M140.74,211.26c-.77-3-2.09-5.69-3.74-1.43-3.15,5.14-9.18,8.35-11.83,12.57-10.24,6.5-17.93,14.79-20.59,26.41-3.84,10.54,3.18,32.47,11.9,36.53,2,.94,3.46,1.84,3.53-.94.76-13.42,9.54-23.31,14.63-35.1C142.42,239,144.78,224.07,140.74,211.26Z" fill="#642d10"/><path d="M110.78,184.76c7.4-4.43,17.15-.4,25.23-1.68,10.41,1.43,21.46.75,28.34-7,.28-.31,2.38-2.29-.9-3.29a4.54,4.54,0,0,0-2.12-.84c-9.56-3.45-15.38-14.09-27.69-13.7-8.67,1.67-17,5.43-22.86,12.33-1.86,3.44-4.07,6.33-5.71,10.44C101.62,188.73,102.69,191.86,110.78,184.76Z" fill="#642d10"/><path d="M154.92,313.44c-.68-11.72-.68-23.64,1-34.59,2.57-12.61-.59-26.89-8.27-36.36-2.33-2.76-2.91-3.34-3.87-.3-2.5,7.93-8.1,12.79-12.49,20.11-4.22,6.39-10,22.18-6.6,29.85.79,6.62,3.94,12.63,7.39,17.75,7.32,10.86,23.09,22.25,25.47,24,3.75,3.05,5.17.42,2.61-3.22C156.9,325.56,156.71,319.15,154.92,313.44Z" fill="#642d10"/><path d="M139.87,156.59c5,.57,10.15,1.41,14.17,4,9.66,9.76,22.36,16.65,37.34,14a1.72,1.72,0,0,0,1.18-1.19c-2.16-4.12-6.4-5.41-8.08-9.74-3.95-9.57-13.39-18.24-24.52-17.93-7.37-1.11-18.53,3.23-21.12,8.18C137.59,156.13,138,156.38,139.87,156.59Z" fill="#642d10"/><path d="M215.75,350.39a27.08,27.08,0,0,1-2.6-2.47c-8.27-10.93-14.77-23.26-17.24-37.15-2.37-6.4-2.5-13-5-20.1a24.78,24.78,0,0,0-2.07-8.27c-5.22-11.23-12.91-21-25.62-24.55-7.3-2.21-4.44.84-3.86,2.76,3.61,12.13-1.19,30-1.34,32-.64,8.62-2,17.39.47,25.94,1.51,4.24,1.37,7.7,4.34,11.63a83.41,83.41,0,0,0,13.13,11.94c13.06,9.36,31.51,13,40.07,11.71C219.07,353.23,219.07,352,215.75,350.39Z" fill="#642d10"/><path d="M177.64,149a5.85,5.85,0,0,1,3.3,2.87c5.33,8.76,9.65,17.34,18.92,22.47,1.52,3.58,2.66,8.37.3,12.31-1.32,2.19,2.3,3.59,6.11,1.67,6-3.16,7.19-10,6.89-17.53-2.66-9.27-9.45-19-19.21-22-4.05-1-12.22-2.72-14.39-2.56C176.42,146.45,176.26,148.42,177.64,149Z" fill="#642d10"/><path d="M280.75,357.18c-7.59-.6-11.71-6.45-16.26-11.15-9.55-14-18.77-29.8-24.83-43.53A35.66,35.66,0,0,0,232.27,291c-8.77-12.41-23.15-22.46-39.71-22.95-8.09.19-6.6,3-4.85,4.58,6.62,6.65,6.19,11.3,9.14,24.15,3.57,15.6,6.5,29.39,18.17,46.24,9.56,12.21,25.61,16.65,40.2,21.48,8.77,1.28,19.9,4.34,26.5-2.56A2.79,2.79,0,0,0,280.75,357.18Z" fill="#642d10"/><path d="M341.29,356.81c-11-4.93-20.34-15.09-27.64-25.44-7.09-9-13.31-19-20.1-27.88-7.22-10.53-15.18-18.53-23-26.71-6-5.36-10.76-9.22-18.23-12.83-8.46-4.28-30.66-4.09-38,1.35-3.33,2.26-2.24,3.41.17,3.7,4.72.84,13.4,8,20.06,16.25,8.77,10.45,11.53,23.76,19.42,34.1,8.48,18.82,25,37.65,45.91,43,11.59,5.49,37.14,5.83,43.3-1.16C345.4,358.94,346.66,358.23,341.29,356.81Z" fill="#642d10"/><path d="M378,349.59c-8.54-1.9-13.71-11.35-18.72-19.41a299.44,299.44,0,0,1-18.42-40c-4.07-8.67-20.33-32.07-32.61-39-2.26-1.42-9.26-7.23-19.9-7.78-16.87-2.69-40.38,1.43-47.53,11.94-.66,1.14-1.23,3.2,1.55,3.26,9,.31,17.83,3,24,8.93,6.3,3.85,12.32,10.93,17,17,4.93,5.23,8.87,11.92,13.41,17.44,3.74,7.09,9.36,13.31,14.19,20.1,6.88,9.7,14.53,18,23.43,24.65,15.92,11.8,36.42,14,44,5.89C379,351.66,379.77,350,378,349.59Z" fill="#642d10"/><path d="M391.39,332.55c-12.81-11.83-20.49-28.48-29.07-43.75-.78-4.14-19.8-42.47-21-50.64-3-6.81-4.83-14.09-7.59-21-1.25-2.44-3.52-3.51-6-4-16.17-3.44-29.1-1.4-49.56,19.42-.79.88-3,3.31-1.18,3.74,11.12.27,23.24,2.82,33.08,9.92C321,254.07,328.5,266,337,276.29c2.66,4.34,4.24,9.65,6.9,14.19,2.46,8.17,6.3,15.06,9.45,23,5.29,10.07,11.43,23.37,21.55,29.16,4.66,2.65,17.34,9.4,25.55,3.17,1.76-1,1.58-2.48.19-4A41,41,0,0,1,391.39,332.55Z" fill="#642d10"/><path d="M383.42,291c-7.89-8.57-10.55-19.51-15.87-29.56-3.06-9-6.7-17.63-9.26-26.79-1.87-9.65-6-18.73-3.75-29.27.55-2.24,1.39-4.43-1.18-5.22-3-.4-6.11-2.16-9.65-1.18a8.4,8.4,0,0,0-5.72,6.39c-.79,8.86,2,17.46,4,25.72,4.18,16.6,31.24,74.09,40.4,86.13,6.9,12.31,19.61,26.2,33.1,31.22a4.57,4.57,0,0,0,5-3.05c-.7-5-4.93-8.47-7.4-12.31C403.81,319.44,393.36,304.38,383.42,291Z" fill="#642d10"/></svg>