<svg id="Layer_1" data-name="Layer 1" xmlns="http://www.w3.org/2000/svg" viewBox="0 0 512 512"><title>blogin</title><path d="M512,9.7c0-5.86-6-9.7-11.85-9.7H255.41C114.35,0,0,114.3,0,255.88S115,512,256,512,512,397,512,255.39Z" fill="#00c1ed"/><path d="M335.64,151c-30.5-1.13-57.71,14.94-73.19,39.87h-.23a3.37,3.37,0,0,1-2.92,2.54,3.33,3.33,0,0,1-3-2.44h0c-13.1-31.23-43.21-52.84-77.94-52.25-46.15.78-85,40.54-82.21,88.61,5.15,89.59,96.92,77.42,82.48,181.73.17,5.18.54,9,10.67,5.84,234.65-73,226-161.13,226.63-174.48C418.07,192.24,381.8,152.65,335.64,151Z" fill="#fff"/></svg>