<svg id="Layer_1" data-name="Layer 1" xmlns="http://www.w3.org/2000/svg" viewBox="0 0 512 512"><title>sunflower</title><circle cx="256" cy="256" r="256" fill="#ec582d"/><path d="M405.6,254.86a27.73,27.73,0,0,0-27.74-27.7H359.13l15.7-9.06a27.72,27.72,0,1,0-27.7-48l-16.23,9.37L340,163.73A27.71,27.71,0,1,0,292,136l-9.36,16.2V134.12a27.73,27.73,0,1,0-55.45,0v18.72l-9.07-15.69a27.72,27.72,0,1,0-48,27.73l9.35,16.19-15.68-9a27.73,27.73,0,1,0-27.71,48l16.2,9.35H134.1a27.72,27.72,0,0,0,0,55.44h18.73l-15.7,9.05a27.72,27.72,0,1,0,27.73,48l16.2-9.35-9,15.7A27.72,27.72,0,1,0,220,376l9.35-16.21v18.13a27.73,27.73,0,0,0,55.45,0V359.16l9,15.68a27.72,27.72,0,1,0,48-27.7l-9.37-16.25L348.24,340A27.72,27.72,0,1,0,376,292l-16.24-9.37h18.13A27.71,27.71,0,0,0,405.6,254.86Z" fill="#f5af29"/><path d="M256,332.42A76.43,76.43,0,1,1,332.43,256,76.42,76.42,0,0,1,256,332.42Z" fill="#642d10"/></svg>