<svg id="Layer_1" data-name="Layer 1" xmlns="http://www.w3.org/2000/svg" viewBox="0 0 512 512"><title>menu-card</title><circle cx="256" cy="256" r="256" fill="#ec582d"/><g id="icon"><rect x="145.29" y="112.46" width="221.42" height="287.1" fill="#feeac5"/></g><path d="M226.07,157.28a5.73,5.73,0,0,1-1,1.43,4.06,4.06,0,0,1-1.46.87v48.5a2.06,2.06,0,0,0,.26,1.2,2.14,2.14,0,0,0,.69.6,6.58,6.58,0,0,1,1.37,1.48,4.25,4.25,0,0,1,.69,2.57v2.76H212.51v-2.84a4,4,0,0,1,.69-2.42,6.92,6.92,0,0,1,1.38-1.46,2.45,2.45,0,0,0,.69-.6,2.1,2.1,0,0,0,.26-1.22V172.91a.36.36,0,0,0-.22-.3c-.14-.08-.28,0-.39.3q-3.18,5.68-5.68,10.35c-.75,1.31-1.46,2.62-2.15,3.91l-1.89,3.58c-.58,1.09-1.06,2-1.47,2.75a10.67,10.67,0,0,0-.68,1.39,1.78,1.78,0,0,1-1.08.89,5.52,5.52,0,0,1-3.62,0,1.82,1.82,0,0,1-1.08-.82,15,15,0,0,1-.73-1.36c-.38-.75-.84-1.66-1.42-2.71s-1.22-2.26-1.93-3.58-1.42-2.65-2.11-4q-2.51-4.74-5.61-10.43a.23.23,0,0,0-.21-.16c-.09,0-.13.11-.13.35v35.3a2.46,2.46,0,0,0,.21,1.21,1.83,1.83,0,0,0,.65.6,6.88,6.88,0,0,1,1.37,1.46,4,4,0,0,1,.7,2.41v2.59H173.67v-2.59a4,4,0,0,1,.69-2.41,7.06,7.06,0,0,1,1.37-1.46,2.21,2.21,0,0,0,.69-.6,2.08,2.08,0,0,0,.26-1.21V159.57a3.33,3.33,0,0,1-1.46-.87,4.27,4.27,0,0,1-1-1.43,5.45,5.45,0,0,1-.44-2.36v-2.68h9a2.06,2.06,0,0,1,1.09.35,2.2,2.2,0,0,1,.82.94c.4,1,1,2.38,1.89,4.19s1.84,3.8,2.93,6,2.22,4.42,3.4,6.68,2.27,4.36,3.28,6.24,1.84,3.46,2.5,4.74a16,16,0,0,0,1.17,2.07c.11.29.23.4.39.35a.9.9,0,0,0,.39-.35,11.3,11.3,0,0,1,.74-1.38c.48-.85,1.09-2,1.8-3.45s1.56-3,2.5-4.82l2.89-5.42,7.75-14.82a2,2,0,0,1,.86-1,2.79,2.79,0,0,1,1.21-.26h8.26v2.68A5,5,0,0,1,226.07,157.28Z" fill="#642d10"/><path d="M241.66,159.78a1.23,1.23,0,0,0-.39.9v18c0,.81.43,1.21,1.29,1.21h10.25a1.69,1.69,0,0,1,.9.31,1.09,1.09,0,0,1,.48,1V186c0,.79-.43,1.2-1.3,1.2H242.57c-.87,0-1.29.4-1.29,1.21v20.07c0,.8.35,1.21,1,1.21h8.61c.63,0,.94-.38.94-1.12a2.45,2.45,0,0,1,1.16-2.16,5.63,5.63,0,0,1,3.14-.77h3.27v8.87a2,2,0,0,1-.64,1.55,2.27,2.27,0,0,1-1.6.6h-27.3v-2.24a7,7,0,0,1,.47-2.88,2.94,2.94,0,0,1,1.33-1.43,1.94,1.94,0,0,0,1.12-1.8V160.68a2,2,0,0,0-.34-1.21,2.72,2.72,0,0,0-.78-.68,3.06,3.06,0,0,1-1.33-1.38,6.2,6.2,0,0,1-.47-2.67v-2.51h27.3a2.25,2.25,0,0,1,1.64.61,1.84,1.84,0,0,1,.6,1.3v9.12h-3.19a8.58,8.58,0,0,1-3.05-.47,1.88,1.88,0,0,1-1.25-1.94,2,2,0,0,0-.26-1,1,1,0,0,0-.95-.48h-8.27A1.19,1.19,0,0,0,241.66,159.78Z" fill="#642d10"/><path d="M299.32,152.24v2.51a4.11,4.11,0,0,1-.68,2.42,6.87,6.87,0,0,1-1.38,1.45,3.68,3.68,0,0,0-.56.7,2.61,2.61,0,0,0-.3,1.12v54a2.5,2.5,0,0,1-.51,1.55,1.81,1.81,0,0,1-1.55.7h-5a1.64,1.64,0,0,1-1.6-1,14.53,14.53,0,0,1-.91-2.41c-.11-.28-.49-1.42-1.11-3.4s-1.39-4.36-2.28-7.16-1.83-5.75-2.84-8.9-1.94-6.09-2.8-8.79-1.58-4.95-2.16-6.76-.86-2.73-.86-2.79a1.05,1.05,0,0,0-.18-.26s-.08.09-.08.43v32.65a1.72,1.72,0,0,0,.94,1.89,6.23,6.23,0,0,1,1.34,1.46,4.26,4.26,0,0,1,.64,2.41v2.59H264v-2.59a4.06,4.06,0,0,1,.68-2.41,7.07,7.07,0,0,1,1.38-1.46,3,3,0,0,0,.61-.6,2.11,2.11,0,0,0,.26-1.21V159.82a4.38,4.38,0,0,1-1.46-.94,4.31,4.31,0,0,1-1-1.42,5.41,5.41,0,0,1-.43-2.36v-2.86h9.73a2.19,2.19,0,0,1,1.54.48,2.94,2.94,0,0,1,.78,1.33c0,.13.28,1.1.86,2.94l2.15,6.84q1.29,4.1,2.8,9t2.84,9.29c.89,3,1.67,5.58,2.37,7.8l1.38,4.49a2.31,2.31,0,0,0,.21.34c.09.12.13.09.13-.09V160.51a2,2,0,0,0-.26-1.2,5.35,5.35,0,0,0-.6-.7,6.76,6.76,0,0,1-1.37-1.45,4,4,0,0,1-.7-2.42v-2.51Z" fill="#642d10"/><path d="M338.34,152.24v2.59a4.67,4.67,0,0,1-.56,2.42,5,5,0,0,1-1.24,1.45,2.87,2.87,0,0,0-.57.56,2.21,2.21,0,0,0-.29,1v44a13.24,13.24,0,0,1-1.16,5.73,11.33,11.33,0,0,1-3.19,4.05,13.91,13.91,0,0,1-4.73,2.36,23.08,23.08,0,0,1-11.85,0,14.32,14.32,0,0,1-4.83-2.36,11.27,11.27,0,0,1-3.23-4.05,13.3,13.3,0,0,1-1.16-5.73V160.51a2.31,2.31,0,0,0-.22-1.2,1.72,1.72,0,0,0-.64-.61,7.13,7.13,0,0,1-1.38-1.45,4.07,4.07,0,0,1-.69-2.42v-2.59h14.65v2.59a3.6,3.6,0,0,1-.82,2.42,11,11,0,0,1-1.51,1.45,1.89,1.89,0,0,0-.65.61,2.36,2.36,0,0,0-.21,1.2v43.07a5.79,5.79,0,0,0,2.11,5,7.31,7.31,0,0,0,4.51,1.59,7.06,7.06,0,0,0,4.4-1.59,5.86,5.86,0,0,0,2.06-5V160.25a1.48,1.48,0,0,0-.26-1,4.29,4.29,0,0,0-.6-.56,7,7,0,0,1-1.38-1.45,4,4,0,0,1-.69-2.42v-2.59Z" fill="#642d10"/><path d="M184,330.52c2.71-1.85,6.32-1,9.29-2.21,1.55-.7,3.05-2.32,4.79-3.26,3.19-1.78,5.89-2.14,7-5.76-.56-3,.09-6.63-1.21-9-.72-1.35-2.74-1.63-3.76-2.79-.81-.83-.81-2-1.51-3a38.21,38.21,0,0,0-5-5.33c-1.8-1.72-3.61-3.37-5.23-4.75,2.33,1.31,6.68,2.52,8.77-.23,2.57-3.36.6-9.33.57-14,5.41,0,5.64-8.63,7.07-13.78a8,8,0,0,0,6.22,6.81c.7.11,2-.26,2.76,0,3.59,1.05,8.16,11,12.31,4.29,3.25,5.18,7.06,9.81,8.49,16.86,1.21-.38,1.78,1.15,2.49.51,1.41-1.84,1.7-5,1.51-7.32-.07-1-.82-1.94-1-3-.32-2.16.49-4.56.27-6.54-.15-1.24-1-2.29-1.52-3.78-1.29-4.06-1.49-8.15-3.7-11,.87.48,2,2,3.53,2.28,6.1,1.22,10-3.28,10.79-8.23,4.77-1.76,6.89-6.2,7.31-12.28,2.8,4.89,4.44,10.9,11.27,11.85,1.07,1.83,1.51,4.32,3.24,5.52,3.66.67,7.79.73,9.54-2.74-1.61,2.81-.78,6.84-1,11.55-.14,2.74-1.5,5.27-1.54,7.54-.05,2.9,2,5.12,2.22,7.55,7.34-.78,11-7.46,16.61-10.74.9-2,2.57-3.27,4.28-4.49a13.78,13.78,0,0,0,14.32-6.51c-.9,6.94.54,15,5.2,16.34-1.12,4.87-3.92,12.62.73,15.56,2.14.89,5-.5,6.5-1.71-3,5.28-6.42,10-10.06,15.53a42.55,42.55,0,0,1-6.57,7c-1.91,1.72-3.79,3.33-3.79,7,1.91,3.52,7.09,5.41,11.27,7.61,1.69.83,3.42,2.22,5,2.49,2.32.45,4.43-.76,6.5.52a34.08,34.08,0,0,0-12.82,3.48c-4.55,2.35-8.26,7.23-12.83,9.73-2.77,1.53-6,1.33-9.57,2.48-1,.35-3.3,1.5-3.51,3-.39,3.14,4.17,4.09,4.5,6.32-2.32-1.76-5.79-1.25-10.28-1.82-2.05-.23-4.19-1.19-5.77-1.26-1.83-.11-3.72.61-5.51.47-5-.37-9.7-.81-13.29-2.3-1.66-.44-1.93,0-3,.49-4,1-10,3.38-14.07,1.21-5.21,2.38-13.38,3.33-20.56,2.68-2.17-.2-4.07-1.28-6-1.05,1.45-1,4.3-.71,5.29-2.21.92-2.94-.4-5.56-1.5-7.29-3.21-1.29-6.1-2.92-8-5.54-3.44.24-5.38-1-8.76-.79-.62-.26.79-.52,1-.72C198.31,336.63,193.06,330.58,184,330.52Z" fill="#f5af29" fill-rule="evenodd"/></svg>