<svg id="Layer_1" data-name="Layer 1" xmlns="http://www.w3.org/2000/svg" viewBox="0 0 512 512"><title>pumpkin-ale</title><path d="M256,0C114.61,0,0,114.61,0,256S114.61,512,256,512,512,397.38,512,256,397.38,0,256,0Z" fill="#89914f"/><g id="_3" data-name="3"><rect x="175.46" y="181.19" width="149.61" height="212.46" fill="#feeac5"/><rect x="175.46" y="206.12" width="149.61" height="199.48" fill="#ec582d"/><path d="M338.17,156.27a31.48,31.48,0,0,0-31.49-31.49,31.82,31.82,0,0,0-7.71,1.06,24.66,24.66,0,0,0-30.34-3.17,37.39,37.39,0,0,0-68.25,21.13h0a26.17,26.17,0,1,0-24.82,37.27l-.11.11H325.07v.45c.11-.08.24-.13.34-.21l.42-.21-.08-.06A31.3,31.3,0,0,0,338.17,156.27Z" fill="#feeac5"/><path d="M325.07,325.81V305.87a52.42,52.42,0,0,0,52.37-52.35c0-28.88-28.9-52.38-57.76-52.38l5.39-19.95a72.31,72.31,0,1,1,0,144.62Z" fill="#feeac5"/></g><g id="text"><path d="M191.3,254.3c2.49,0,4.26.65,5.36,1.93a7.88,7.88,0,0,1,1.62,5.22v4.78a7.57,7.57,0,0,1-1.62,5.15c-1.09,1.24-2.87,1.86-5.36,1.86h-2.85c-.41,0-.61.18-.61.53v9.11a1.33,1.33,0,0,0,.11.62,1.47,1.47,0,0,0,.33.34,3.63,3.63,0,0,1,.7.75,2,2,0,0,1,.35,1.22v1.28H182v-1.28a2,2,0,0,1,.35-1.22,3.64,3.64,0,0,1,.71-.75,1.42,1.42,0,0,0,.32-.34,1.34,1.34,0,0,0,.11-.62V258.55a1,1,0,0,0-.56-1,2.06,2.06,0,0,1-.75-.79,2.73,2.73,0,0,1-.32-1.41v-1.1Zm2.63,7.06a4.26,4.26,0,0,0-.63-2.46,2.29,2.29,0,0,0-2-.92h-2.76a1,1,0,0,0-.49.15.57.57,0,0,0-.21.46v10.35c0,.42.19.62.56.62h2.9a2.3,2.3,0,0,0,2-.92,4.23,4.23,0,0,0,.63-2.46Z" fill="#642d10"/><path d="M219.89,254.3v1.32a2.32,2.32,0,0,1-.28,1.22,2.64,2.64,0,0,1-.64.75,1.75,1.75,0,0,0-.28.28,1.25,1.25,0,0,0-.15.51v22.4a6.76,6.76,0,0,1-.6,2.92,5.78,5.78,0,0,1-1.62,2.05A6.61,6.61,0,0,1,213.9,287a10.63,10.63,0,0,1-3,.4,10.89,10.89,0,0,1-3-.4,6.93,6.93,0,0,1-2.46-1.21,5.68,5.68,0,0,1-1.65-2.05,7,7,0,0,1-.58-2.92V258.51a1.31,1.31,0,0,0-.11-.62,1.19,1.19,0,0,0-.34-.3,3.5,3.5,0,0,1-.7-.75,2,2,0,0,1-.35-1.22V254.3h7.46v1.32a1.81,1.81,0,0,1-.41,1.22,5.37,5.37,0,0,1-.79.75,1.15,1.15,0,0,0-.31.3,1.21,1.21,0,0,0-.12.62v21.92A3,3,0,0,0,208.6,283a3.78,3.78,0,0,0,2.3.82,3.59,3.59,0,0,0,2.24-.82,3,3,0,0,0,1.06-2.53v-22a.78.78,0,0,0-.14-.51,2,2,0,0,0-.31-.28,3.64,3.64,0,0,1-.7-.75,2,2,0,0,1-.36-1.22V254.3Z" fill="#642d10"/><path d="M249.34,256.86a2.86,2.86,0,0,1-.5.73,2.09,2.09,0,0,1-.74.43v24.69a1.16,1.16,0,0,0,.13.62,1.4,1.4,0,0,0,.35.31,3.93,3.93,0,0,1,.7.74,2.2,2.2,0,0,1,.35,1.33v1.41h-7.19v-1.45a2.06,2.06,0,0,1,.35-1.24,3.54,3.54,0,0,1,.7-.74,1.3,1.3,0,0,0,.35-.3,1.13,1.13,0,0,0,.13-.62V264.82c0-.06,0-.1-.1-.15s-.15,0-.2.15c-1.09,1.93-2,3.68-2.89,5.26-.38.68-.77,1.34-1.1,2s-.68,1.27-1,1.82-.54,1-.74,1.41-.33.62-.37.7a.83.83,0,0,1-.54.45,2.24,2.24,0,0,1-.92.16,2.27,2.27,0,0,1-.92-.16.85.85,0,0,1-.55-.4c-.06-.09-.18-.32-.38-.7s-.43-.84-.72-1.38l-1-1.82c-.38-.67-.72-1.35-1.07-2-.86-1.61-1.8-3.38-2.86-5.31,0-.06-.06-.09-.11-.09s-.06.06-.06.18v18a1.24,1.24,0,0,0,.11.62,1,1,0,0,0,.32.31,3.12,3.12,0,0,1,.71.74,2,2,0,0,1,.36,1.22v1.33h-7.33v-1.33a2,2,0,0,1,.35-1.22,3.27,3.27,0,0,1,.7-.74,1.51,1.51,0,0,0,.35-.31,1.13,1.13,0,0,0,.13-.62V258a1.67,1.67,0,0,1-.74-.43,1.94,1.94,0,0,1-.53-.73,2.73,2.73,0,0,1-.23-1.19V254.3h4.56a1.05,1.05,0,0,1,.55.18,1.09,1.09,0,0,1,.43.48c.2.5.52,1.2,1,2.12s.93,1.94,1.48,3.05,1.14,2.25,1.74,3.39,1.16,2.22,1.66,3.19.93,1.76,1.27,2.4a9.56,9.56,0,0,0,.6,1.06c0,.14.11.19.2.17a.41.41,0,0,0,.18-.17,5.79,5.79,0,0,1,.38-.71c.26-.45.55-1,.92-1.75s.79-1.54,1.27-2.46l1.48-2.75,3.94-7.54a1.07,1.07,0,0,1,.44-.53,1.29,1.29,0,0,1,.61-.13h4.21v1.37A2.54,2.54,0,0,1,249.34,256.86Z" fill="#642d10"/><path d="M261.81,254.3c2.49,0,4.26.65,5.35,1.93a7.89,7.89,0,0,1,1.62,5.22v4.78a7.57,7.57,0,0,1-1.62,5.15c-1.09,1.24-2.86,1.86-5.35,1.86H259c-.41,0-.61.18-.61.53v9.11a1.34,1.34,0,0,0,.11.62,1.46,1.46,0,0,0,.33.34,3.63,3.63,0,0,1,.7.75,2,2,0,0,1,.35,1.22v1.28h-7.32v-1.28a2,2,0,0,1,.35-1.22,3.61,3.61,0,0,1,.7-.75,1.43,1.43,0,0,0,.32-.34,1.33,1.33,0,0,0,.11-.62V258.55a1,1,0,0,0-.56-1,2.06,2.06,0,0,1-.74-.79,2.73,2.73,0,0,1-.31-1.41v-1.1Zm2.63,7.06a4.26,4.26,0,0,0-.63-2.46,2.27,2.27,0,0,0-2-.92h-2.76a.92.92,0,0,0-.49.15.55.55,0,0,0-.21.46v10.35c0,.42.19.62.56.62h2.9a2.28,2.28,0,0,0,2-.92,4.23,4.23,0,0,0,.63-2.46Z" fill="#642d10"/><path d="M288.33,283.38a2,2,0,0,1,.79.62,2.48,2.48,0,0,1,.3,1.43v1.67h-2.88a4.65,4.65,0,0,1-.9-.07,1.83,1.83,0,0,1-.66-.24,2.26,2.26,0,0,1-.55-.53,7.53,7.53,0,0,1-.57-.87c-.1-.18-.25-.48-.45-.88s-.48-.89-.75-1.47-.57-1.17-.9-1.82-.64-1.31-1-2c-.76-1.55-1.6-3.26-2.53-5.12l-.7,1.35V283a1.08,1.08,0,0,0,.11.53,1.33,1.33,0,0,0,.33.34,3.61,3.61,0,0,1,.7.75,2,2,0,0,1,.35,1.22v1.28h-7.27v-1.28a2,2,0,0,1,.35-1.22,3.28,3.28,0,0,1,.7-.75,2.13,2.13,0,0,0,.28-.32,1.15,1.15,0,0,0,.16-.55V258.46a1.19,1.19,0,0,0-.16-.53,1.09,1.09,0,0,0-.28-.3,3.1,3.1,0,0,1-.7-.74,2,2,0,0,1-.35-1.22v-1.33H279v1.33a2.13,2.13,0,0,1-.33,1.22,3.43,3.43,0,0,1-.71.74,1.14,1.14,0,0,0-.33.3,1.17,1.17,0,0,0-.11.57v8.25l5.84-10.52a3,3,0,0,1,.6-.92,4.26,4.26,0,0,1,.79-.67,2.19,2.19,0,0,1,1.18-.31h2.77v1.72a1.91,1.91,0,0,1-.51,1.45,3.55,3.55,0,0,1-1,.69,1.21,1.21,0,0,0-.5.45c-.11.17-.22.38-.37.62a8.6,8.6,0,0,0-.46.79c-.26.46-.55,1-.9,1.67s-.74,1.38-1.14,2.15-.81,1.53-1.18,2.24-.72,1.36-1,1.93-.5,1-.62,1.2-.09.29-.12.4a1.14,1.14,0,0,0,.08.57,2.75,2.75,0,0,0,.29.63l.72,1.43c.29.59.62,1.23,1,2l1.15,2.23c.89,1.78,1.92,3.8,3.06,6a2.53,2.53,0,0,0,.45.53A2.73,2.73,0,0,0,288.33,283.38Z" fill="#642d10"/><path d="M298,282.84v.09a1,1,0,0,0,.13.57,1.79,1.79,0,0,0,.31.31,3.24,3.24,0,0,1,.7.74,2,2,0,0,1,.35,1.22v1.33H292.2v-1.33a2.16,2.16,0,0,1,.31-1.2,2.56,2.56,0,0,1,.74-.77,1.39,1.39,0,0,0,.33-.31,1.3,1.3,0,0,0,.1-.57V258.55a1.45,1.45,0,0,0-.1-.62,2.08,2.08,0,0,0-.33-.34,3.33,3.33,0,0,1-.7-.75,2,2,0,0,1-.35-1.22v-1.28h7.32v1.28a2,2,0,0,1-.35,1.22,3.47,3.47,0,0,1-.7.75,1.49,1.49,0,0,0-.33.34,1.45,1.45,0,0,0-.1.62Z" fill="#642d10"/><path d="M320.26,254.3v1.27a2,2,0,0,1-.35,1.23,3.28,3.28,0,0,1-.71.74,3,3,0,0,0-.28.34,1.58,1.58,0,0,0-.16.57V286a1.25,1.25,0,0,1-.26.79,1,1,0,0,1-.79.36h-2.54a.85.85,0,0,1-.81-.49,6.39,6.39,0,0,1-.45-1.23c-.06-.15-.26-.72-.57-1.73s-.72-2.23-1.17-3.64-.93-2.92-1.43-4.54-1-3.09-1.43-4.48-.8-2.51-1.09-3.44-.45-1.38-.45-1.41a.38.38,0,0,0-.08-.14s-.05,0-.05.23v16.61a1.34,1.34,0,0,0,.13.67,1.63,1.63,0,0,0,.35.31,2.81,2.81,0,0,1,.68.74,2,2,0,0,1,.34,1.22v1.33h-6.85v-1.33a2,2,0,0,1,.35-1.22,3.23,3.23,0,0,1,.69-.74,1.87,1.87,0,0,0,.32-.31,1.13,1.13,0,0,0,.14-.62V258.15a2,2,0,0,1-.75-.47,2.08,2.08,0,0,1-.52-.73,2.66,2.66,0,0,1-.22-1.2V254.3h5a1.18,1.18,0,0,1,.8.24,1.48,1.48,0,0,1,.4.68c0,.06.14.55.43,1.49s.65,2.09,1.1,3.48l1.43,4.56q.77,2.48,1.45,4.73c.44,1.5.85,2.83,1.2,4s.59,1.89.7,2.28c0,.06.07.11.11.19s.07,0,.07,0V258.51a1.13,1.13,0,0,0-.13-.62,4.42,4.42,0,0,0-.31-.34,3.43,3.43,0,0,1-.71-.74,2.07,2.07,0,0,1-.35-1.23V254.3Z" fill="#642d10"/><path d="M257.65,317.06a3.89,3.89,0,0,1,1.72,1.58c-3.77,4.39-7.37,8.42-10.71,8.42s-3.58-3.12-2.41-6.49l1.63-4.65h-6.16c-4.55,6-9.54,11.14-15.82,11.14-9.52,0-14.12-9.42-8.72-18.72,5-8.6,16.49-9.26,20-1.06l-3.63,1.4c-2.15-5.21-9-5.09-13,1.62-3.59,6.1-1.71,12.85,5.31,12.82,11.66-.09,23.11-30.93,33.15-27.68l-9,26.31c-.62,1.8-.54,2.24.11,2.24.84,0,3.91-2.76,7.21-6.57Zm-14.29-3.34h5.26l4.56-12.93C249.89,304.17,246.73,309.07,243.35,313.72Z" fill="#f5af29"/><path d="M270,317.06a3.93,3.93,0,0,1,1.72,1.58c-3.77,4.39-8.12,8.42-11.89,8.42s-5-3.12-3.12-6.49l14.74-25.51H276l-15.34,26.69c-1.06,1.8-.5,2.5.53,2.5,2,0,5.21-3,8.51-6.83Z" fill="#f5af29"/><path d="M275.15,318l-.44.79c-2.11,3.68-.44,5.44,2.36,5.44,3.21,0,7.42-3,10.7-6.83l.31-.35a4,4,0,0,1,1.71,1.58c-3.78,4.39-8.9,8.42-14.07,8.42-5.41,0-7.86-4.48-5-9.34l4.78-8.2a9.65,9.65,0,0,1,8.54-5.26c3.73,0,6.1,3.15,3.65,7.37l-.65,1.14C283.6,318.67,278.09,319.25,275.15,318Zm1.31-2.23c1.72.61,4.65.7,6.84-3l.65-1.14c2.71-4.74-1.92-5.48-4.55-1Z" fill="#f5af29"/></g></svg>