<svg id="Layer_1" data-name="Layer 1" xmlns="http://www.w3.org/2000/svg" viewBox="0 0 512 512"><title>thermometer-full-other</title><path d="M306.64,478.71h0Z" fill="#fac60f"/><path d="M487.61,300.28c6.2-1.8,15.9-1.12,16.75-8.1,1.14-9.24-8.53-7.24-14.59-8.3-5.37-1-10.71-2.16-16.06-3.26,15.06-32.76,15.3-35.15,11.71-35.5-30.6-3-13.88-26.06-17.68-40.32,10.56-1.75,20.48-5,28.76-12.52-4.88-5.66-14.19,0-17-8.17-4.93-20-29.57-13-38.25-27.9a25.52,25.52,0,0,0-.13-4.18c2.4-2.44,4.8-4.88,7.21-7.33h0l10.14-1.79h0c7.73-2.4,11.7-10.33,7-14.44-9.91-8.6-21.72-5.44-32.07,2-24.22,1.48-29.27-20.21-40.9-33.93l8.45-12c12.35-4.41,12.42-18.73,21.1-26.11,5.15,2.41,10.78,4.08,13.63-2.48,2.64-6.14-.91-10.68-7.13-11.4-11.19-1.3-18.31,4.3-21.51,15l0,0c-18.1,21.72-39.69,7.16-60,5.78-11.72,0-24.11,2.6-32.91-8.54q.23-6.39.45-12.75c13.65-13.7,15.36-29.28,5-49.54-4.21,24.62-19.49,36.82-40.32,43h0l-40.88,18.3-8.68-5.34c-17.79-3.49-21-24.41-36.48-30.62-5-3.83-11.06-12.7-16.07-7.36-7.87,8.44,4.35,14.83,7,22.48-.3,10.13,7.67,15.43,13.07,22.21h0L186.36,68.94c-10,2.4-19.26.17-28.16-4.26l0,0,0,0-1.53-.87h0c-2-7.87-2.07-16.55-9.72-21.88h0c-.95-12.62-5.07-23.57-17.23-29.35-1.92-.91-7.19.81-7.94,2.59-6.24,14.39,9.6,20.4,12.71,31.46.49,1.71,3.05,2.84,4.68,4.25l-4.38,14.43h0l0,0C128.7,73,118,78.16,121.06,90.79c-2.62,6.54-8.67,6.23-14.13,7.1a11.73,11.73,0,0,0-5.73-2.25C97.11,83.39,88,70.68,76.56,79.23c-10,7.48-3.31,21.35,9.08,27.94h0c2.31,3,4.65,5.92,7,8.9v0c.12,2.59.23,5.16.36,7.75L80.54,136.18h0c-4.66-.62-9.33-1.24-14-1.88-8.75-4.92-19.88-10.36-24.8,1.51-4.46,10.74,6.62,13.79,15.67,15.13q2,7.14,3.92,14.24h0v0q-10.87,15.68-21.78,31.34h0c-7.45,4.21-23-5.67-22.61,8.84.23,8.53,14.37,4.92,22.4,6.24L46.2,223.8l-19.63,19c-6.64-.17-14.69-.77-17.91,5.42-3.77,7.24,2.78,13.17,8.58,15.28,20,7.27,13.35,17.11,3.79,27.83-15.12,24.32,23.32,21.9,20.1,40.24C38.5,343.86,12,345.55,26.25,365.27c10.07,9.8,21.82,3.92,33,3.51l0,0h0c4.1,6.3,13.11,14.4,11.54,18.62-10.51,28.67,10.45,35.11,28.61,44,.73,7.31,2.2,13.95,11.84,13.34,8.11,6.47-9.2,31.35,11.73,28.57,1.89.33,4.37-.15,7.65-1.76,15.69-8.9,30.23-14.74,30.31,12.86,0,17.49,10.75,16.8,21.9,12.1,8.56-3.6,14.16-14.23,25.79-10.5,9.77,6.33,23.61,3.5,31.47,14.07h0c18.29,13.94,36.75,32.07,52.9-2.34,6.1-5.22,12.65-10.14,13.68-19l19.76,6.57c27.77,32.22,19.41-17.67,34.18-15l13.16,1c5.83,9.07,11.7,22.85,24.34,13.46,7.71-5.72,8.3-18.39-7.51-20.5v0l0,0c-2.57-9,9.57-10.73,9.27-18.63h0c7.63-16,29.32-12.85,37.78-27.74l.14.07c9.32,5.61,19.06,9.41,30.24,7.1,9.26-9,12.37-20.33,12.72-32.76,13.92-17.37-.8-18.26-12.12-21.09h0c-3.62-9.8,1.33-18.32,4-27.2.77-1.87,1.45-3.77,2.07-5.7,10.57-.38,23.26,4.68,29.55-10.83-10.18-5.89-19.89-3.77-29.37-3.54C470.14,311.16,478.12,305.32,487.61,300.28Zm-181,178.44h0Z" fill="#fac60f"/><path d="M424.49,2c.61-1.41-2-6.06-3.45-6.24-5.23-.62-7.17,3.69-7.58,8-.26,2.5,1.28,5.18,2.55,9.71C419.79,8.63,422.89,5.67,424.49,2Z" fill="#fac60f"/><path d="M300.54,273.34V166.87a44.33,44.33,0,1,0-88.65,0V273.34c-14.78,12.22-22.54,29.78-22.54,49.51a66.76,66.76,0,1,0,133.52,0C322.87,303.12,315.32,285.56,300.54,273.34Zm-44.6,94.07c-24.61,0-44.9-20-44.9-44.57,0-16.45,9.29-30.66,22-38.39V166.87c0-12.31,10.91-22.28,23.22-22.28s23.22,10,23.22,22.28V284.46a45.14,45.14,0,0,1,21.68,38.39C301.11,347.46,280.55,367.41,255.94,367.41Z" fill="#fff"/><path d="M266.77,291.47V166.87c0-6.16-4.4-11.14-10.55-11.14s-10.55,5-10.55,11.14v124.6c-12.66,4.6-22.72,16.84-22.72,31.38a33.19,33.19,0,1,0,66.37,0C289.32,308.31,279.43,296.07,266.77,291.47Z" fill="#fff"/></svg>