<svg id="Layer_1" data-name="Layer 1" xmlns="http://www.w3.org/2000/svg" viewBox="0 0 512 512"><title>autumn-leaf</title><path d="M256,0C114.61,0,0,114.62,0,256S114.61,512,256,512,512,397.38,512,256,397.39,0,256,0Z" fill="#f5af29"/><path d="M363.52,148.48a3.55,3.55,0,0,0-5,0L115.43,391.56a3.54,3.54,0,1,0,5,5L363.52,153.49A3.54,3.54,0,0,0,363.52,148.48Zm-97.57,11.14a10.74,10.74,0,0,1-10.17,1.61l-48.39-18L283,218.92l15-15-26.17-96.16C276.83,142.77,271.41,155.29,265.95,159.61Zm-62-14.19c21.12,28.74,22.23,42.39,19.43,48.81a10.82,10.82,0,0,1-8.21,6.23L137.53,211,266.46,235.5l14.09-14.08-77-76.94A1.7,1.7,0,0,0,203.93,145.43ZM169.77,254.79a10.77,10.77,0,0,1-5.94,8.43l-57,23.87,118.06-10,38.53-38.53-126.69-24.1C165.32,235.23,170.49,247.86,169.77,254.79Zm235.81-18-48.28-22.1c-.23-.11-15.85-7-9.64-40.38L310.92,211.1l94.68,25.76Zm-87.82,51.8c6.41-2.79,20.08-1.7,48.8,19.43a1.74,1.74,0,0,0,1,.34l-77-77-14.09,14.08L301,374.47l10.51-77.57A10.78,10.78,0,0,1,317.76,288.64ZM297.29,154.76l-22.14-48.34s0,0,0,0l25.76,94.67,36.74-36.73C304.25,170.53,297.36,154.94,297.29,154.76Zm-190.6,136c35.5,3.36,46.44,11.64,49.35,18a10.82,10.82,0,0,1-.82,10.28l-39.3,67L221,280.95l-114.64,9.72A2.19,2.19,0,0,0,106.7,290.76Zm244.08-34.49a10.78,10.78,0,0,1,1.61-10.22c4.33-5.47,16.83-10.91,51.81-5.91L308,214l-15,15,75.69,75.68Zm-115.84,30.8-10,118.07,23.87-57a10.82,10.82,0,0,1,8.41-5.91c6.95-.7,19.57,4.47,40.38,33L273.45,248.56Zm-109,109,66.92-39.22a10.79,10.79,0,0,1,10.4-.91c6.35,2.92,14.61,13.85,18,49.35a1.69,1.69,0,0,0,.07.31L231.07,291Z" fill="#642d10"/></svg>