<svg id="Layer_1" data-name="Layer 1" xmlns="http://www.w3.org/2000/svg" viewBox="0 0 512 512"><title>black-friday-sale</title><path d="M256,0C114.62,0,0,114.63,0,256S114.62,512,256,512,512,397.38,512,256,397.39,0,256,0Z" fill="#f5af29"/><g id="_3" data-name="3"><path id="label" d="M435.53,256a179.53,179.53,0,0,1-359.06,0c0-99.15,80.38-179.54,179.53-179.54S435.53,156.86,435.53,256ZM256,169a87,87,0,1,0,87,87A87,87,0,0,0,256,169Z" fill="#642d10"/><g id="stars"><polygon points="132.26 245.16 136.69 253.57 146.03 255.16 139.41 261.95 140.76 271.33 132.26 267.14 123.76 271.33 125.13 261.95 118.5 255.16 127.85 253.57 132.26 245.16" fill="#f5af29"/><polygon points="378.34 245.16 382.74 253.57 392.08 255.16 385.48 261.95 386.83 271.33 378.34 267.14 369.83 271.33 371.18 261.95 364.57 255.16 373.92 253.57 378.34 245.16" fill="#f5af29"/></g></g><g id="big_sale" data-name="big sale"><path d="M185.1,360.37a6.22,6.22,0,0,1,0,3.2,8.43,8.43,0,0,1-1.62,3.26l-3.7,4.85a10,10,0,0,1-5.68,4q-3.16.71-6.94-2.18l-9.43-7.2,1-1.34a3.84,3.84,0,0,1,1.31-1.19,2,2,0,0,1,1.23-.2,1.14,1.14,0,0,0,.65,0,1.43,1.43,0,0,0,.68-.51l18.68-24.43a1.31,1.31,0,0,0,.19-1.35c-.43-.79-.16-1.82.82-3.11l.88-1.15,9,6.87c2.52,1.92,3.83,4,3.95,6.08a9.78,9.78,0,0,1-2.36,6.49l-3,3.91a7.35,7.35,0,0,1-2.34,2.09,6.41,6.41,0,0,1-2.71.82.85.85,0,0,0-.6.32A.8.8,0,0,0,185.1,360.37ZM179,363.73a5.31,5.31,0,0,0,1.26-3,2.94,2.94,0,0,0-1.35-2.51L176,356a.69.69,0,0,0-1.1.15l-8,10.42a.69.69,0,0,0,.14,1.1l2.89,2.21a3,3,0,0,0,2.79.65,5.54,5.54,0,0,0,2.55-2Zm-.35-12.46a.65.65,0,0,0,.14,1l2.49,1.92a3,3,0,0,0,2.75.65,5.12,5.12,0,0,0,2.55-2l2.79-3.66a5.27,5.27,0,0,0,1.24-3,3,3,0,0,0-1.32-2.51l-2.46-1.87a.72.72,0,0,0-.62-.16.84.84,0,0,0-.51.35Z" fill="#ec582d"/><path d="M193.08,383.17l0,.09a1.27,1.27,0,0,0-.18.72,1.58,1.58,0,0,0,.17.53,4.78,4.78,0,0,1,.36,1.26,2.62,2.62,0,0,1-.33,1.6l-.77,1.48L184,384.56l.77-1.48a2.86,2.86,0,0,1,1.05-1.19,4,4,0,0,1,1.3-.43,1.31,1.31,0,0,0,.55-.16,1.49,1.49,0,0,0,.46-.58l.06-.1,14.26-27.55a1.67,1.67,0,0,0,.24-.77,1.59,1.59,0,0,0-.17-.59,4.15,4.15,0,0,1-.35-1.26,2.58,2.58,0,0,1,.32-1.6l.75-1.43,8.31,4.29-.75,1.45a2.58,2.58,0,0,1-1.11,1.18,4,4,0,0,1-1.23.43,1.78,1.78,0,0,0-.57.21,1.42,1.42,0,0,0-.49.63Z" fill="#ec582d"/><path d="M221.14,399.15c-.1.35-.39.47-.81.33l-.49-.15a.53.53,0,0,1-.35-.26,1,1,0,0,1-.11-.3c-.17-.72-.41-1.14-.72-1.26a1.55,1.55,0,0,0-1,0,5.56,5.56,0,0,1-1.47.13c-.57,0-1.16-.09-1.78-.16s-1.24-.18-1.84-.31-1.17-.28-1.71-.47a9.59,9.59,0,0,1-5.52-3.91c-1.15-1.82-1.29-4.07-.43-6.82l7.82-24.8a9.24,9.24,0,0,1,1.79-3.34,6.89,6.89,0,0,1,2.66-1.92,8.42,8.42,0,0,1,3.36-.57,13.85,13.85,0,0,1,3.8.69,13.65,13.65,0,0,1,3.54,1.64,9,9,0,0,1,2.52,2.41,7.57,7.57,0,0,1,1.24,3.15,8.41,8.41,0,0,1-.38,3.79l-1.15,3.63-2.35-.73a3.35,3.35,0,0,1-.77-.42,4.25,4.25,0,0,1-.83-.77,3.56,3.56,0,0,1-.57-1,1.62,1.62,0,0,1,0-1.13l.34-1.06a4,4,0,0,0,.18-1.92,3.59,3.59,0,0,0-.58-1.47,4.3,4.3,0,0,0-1.12-1.09,5.46,5.46,0,0,0-1.44-.68,4.53,4.53,0,0,0-2.91,0A3.65,3.65,0,0,0,218,363l-7.67,24.3a3.66,3.66,0,0,0,.21,3.36,4.48,4.48,0,0,0,2.37,1.7,5.88,5.88,0,0,0,1.52.25,4.66,4.66,0,0,0,1.56-.25,3.28,3.28,0,0,0,1.36-.87,3.88,3.88,0,0,0,.95-1.67l2.26-7.15a1.26,1.26,0,0,0-.44-1.56,1.83,1.83,0,0,1-.92-1.11,4.26,4.26,0,0,1,.25-2.21l.41-1.28,6.36,2a2.24,2.24,0,0,1,.75.5,1.1,1.1,0,0,1,.18,1.21Z" fill="#ec582d"/><path d="M258.66,373.89a3,3,0,0,0,1.2,2.06,19.23,19.23,0,0,0,2.74,1.88q1.62,1,3.57,2a24,24,0,0,1,3.59,2.34,14.29,14.29,0,0,1,2.8,3,7.46,7.46,0,0,1,1.29,3.92l.33,5.48a8,8,0,0,1-.62,3.77,7.66,7.66,0,0,1-2.09,2.75,9.61,9.61,0,0,1-3.15,1.73,15.13,15.13,0,0,1-3.89.72,15,15,0,0,1-3.94-.27,9.5,9.5,0,0,1-3.3-1.36,7.41,7.41,0,0,1-2.34-2.5,8.08,8.08,0,0,1-1-3.67l-.24-4.19,2.69-.15a3.22,3.22,0,0,1,2.3.55,2.66,2.66,0,0,1,.88,2l.13,2.41a2.24,2.24,0,0,0,.49,1.26,4.08,4.08,0,0,0,1.12.88,6.22,6.22,0,0,0,3,.67,5.2,5.2,0,0,0,1.51-.34,5.83,5.83,0,0,0,1.41-.76,3.78,3.78,0,0,0,1-1.07,2.22,2.22,0,0,0,.35-1.33l-.34-5.93a5.05,5.05,0,0,0-1.22-3.1,11.55,11.55,0,0,0-2.74-2.24c-1.09-.64-2.26-1.28-3.51-1.89a28.18,28.18,0,0,1-3.52-2.07,11.36,11.36,0,0,1-2.77-2.74,7.41,7.41,0,0,1-1.26-3.93l-.23-4a9.24,9.24,0,0,1,.51-3.88,7,7,0,0,1,1.86-2.75,8.34,8.34,0,0,1,2.93-1.68,14.08,14.08,0,0,1,3.78-.69,13.12,13.12,0,0,1,3.86.31,9.41,9.41,0,0,1,3.16,1.38,7,7,0,0,1,2.2,2.52,8.8,8.8,0,0,1,.94,3.68l.24,4.13-2.52.15a3.25,3.25,0,0,1-2.41-.76,2.92,2.92,0,0,1-1.07-2.19l-.13-2.06a1.86,1.86,0,0,0-.46-1.16,3,3,0,0,0-1-.75,5.52,5.52,0,0,0-1.32-.38,7.2,7.2,0,0,0-1.26,0,4.66,4.66,0,0,0-1.28.23,5.62,5.62,0,0,0-1.26.57,3.4,3.4,0,0,0-1,.87,1.65,1.65,0,0,0-.33,1.11Z" fill="#ec582d"/><path d="M307.25,390a3.3,3.3,0,0,1,1.12.7,3.08,3.08,0,0,1,.86,1.47l.44,1.5-9,2.67-.43-1.47a2.89,2.89,0,0,1-.08-1.65,2.55,2.55,0,0,1,.55-1.09,3.5,3.5,0,0,0,.33-.57,1,1,0,0,0,0-.75,17.32,17.32,0,0,0-.82-1.8c-.22-.48-.44-.93-.63-1.36a7.57,7.57,0,0,1-.39-.9,1.3,1.3,0,0,0-.68-.74,1.55,1.55,0,0,0-.88,0l-6.11,1.82c-.57.16-.79.62-.65,1.36a5.53,5.53,0,0,0,.19,1,14.09,14.09,0,0,1,.28,1.48c.1.6.22,1.24.35,2a1.64,1.64,0,0,0,.32.65,1.38,1.38,0,0,0,.5.32,2.81,2.81,0,0,1,1.07.62,3.17,3.17,0,0,1,.84,1.45l.42,1.45-9,2.66-.42-1.41a3.46,3.46,0,0,1-.08-1.75,2.75,2.75,0,0,1,.54-1.24,4.46,4.46,0,0,0,.35-.61,1.67,1.67,0,0,0,.13-.76c-.64-5.81-1.18-11-1.65-15.58q-.29-3-.6-5.77t-.51-5c-.15-1.48-.27-2.67-.36-3.56s-.15-1.38-.16-1.42a6.86,6.86,0,0,0-.17-.81.47.47,0,0,0-.4-.37c-1-.1-1.74-.91-2.2-2.44l-.36-1.24,7.2-2.14a2.89,2.89,0,0,1,3.57,1.58c0,.14.31.69.77,1.63s1.09,2.16,1.81,3.66,1.55,3.13,2.47,5,1.84,3.7,2.8,5.61l7.52,15.06a1.46,1.46,0,0,0,.52.58A3.59,3.59,0,0,0,307.25,390Zm-11.35-8.31a.77.77,0,0,0,.51-.46.7.7,0,0,0,0-.62s-.15-.32-.43-.87-.62-1.23-1-2.07-.86-1.82-1.39-2.9-1-2.17-1.61-3.28l-4.39-8.88-.1,0,1.16,9.84c.14,1.25.28,2.46.44,3.65s.29,2.23.42,3.17.21,1.7.29,2.31.13.91.14.94a.73.73,0,0,0,.35.57.71.71,0,0,0,.6.08Z" fill="#ec582d"/><path d="M332.35,373.41l3,5.34a1.35,1.35,0,0,1,.14,1.14,1.49,1.49,0,0,1-.6.79l-1,.54-14.62,8.15-.83-1.47a4.57,4.57,0,0,1-.64-1.79,1.94,1.94,0,0,1,.32-1.23,1.8,1.8,0,0,0,.27-.6,1,1,0,0,0-.1-.72l-15.06-27a1.57,1.57,0,0,0-.56-.65,1.76,1.76,0,0,0-.57-.12,4,4,0,0,1-1.25-.39,2.73,2.73,0,0,1-1.16-1.15l-.82-1.48,8.17-4.56.82,1.48a2.46,2.46,0,0,1,.38,1.58,4.15,4.15,0,0,1-.32,1.26,1.55,1.55,0,0,0-.18.55,1.94,1.94,0,0,0,.28.81L323,380.77a1.67,1.67,0,0,0,.52.62.62.62,0,0,0,.66,0l4.31-2.41a.63.63,0,0,0,.36-.55,1.2,1.2,0,0,0-.14-.67,1.65,1.65,0,0,1-.08-1.87,5,5,0,0,1,1.62-1.36Z" fill="#ec582d"/><path d="M326.67,340.74a.74.74,0,0,0,.18.59l7.69,8.86a.72.72,0,0,0,1.15,0l5-4.37a1.07,1.07,0,0,1,.59-.23.64.64,0,0,1,.64.28l2.06,2.36a.72.72,0,0,1-.12,1.15l-5.07,4.41a.71.71,0,0,0-.11,1.14l8.57,9.86q.51.6,1,.15l4.23-3.67c.3-.28.3-.6,0-1a1.58,1.58,0,0,1-.35-1.55,3.6,3.6,0,0,1,1.22-1.72l1.6-1.41,3.77,4.36a1.22,1.22,0,0,1,.35,1,1.42,1.42,0,0,1-.52,1l-2.62,2.28-8.24,7.17-2.53,2.21-1-1.1a4.65,4.65,0,0,1-1-1.61,2,2,0,0,1,.06-1.28,1.28,1.28,0,0,0-.23-1.37L322.71,345a1.3,1.3,0,0,0-.68-.46,2.71,2.71,0,0,0-.68,0,1.93,1.93,0,0,1-1.24-.1,4,4,0,0,1-1.38-1.11L317.68,342l13.39-11.65a1.46,1.46,0,0,1,1.07-.4,1.23,1.23,0,0,1,.85.37l3.89,4.48-1.57,1.37a5.1,5.1,0,0,1-1.7,1.06,1.19,1.19,0,0,1-1.44-.42,1.41,1.41,0,0,0-.55-.36.63.63,0,0,0-.67.18l-4.06,3.51A.72.72,0,0,0,326.67,340.74Z" fill="#ec582d"/></g><g id="_" data-name="$"><path d="M225.24,277c13.69,7.26,28.53,7.51,34,7.13,7-.38,13-4.13,12.34-9-.51-5.14-5.67-7.39-12.34-9.14-18.69-5.12-35.37-12.26-35.37-27.27,0-12.64,9.84-22.76,24.86-26.14v-12H270V211.8a121.1,121.1,0,0,1,17.35,3.37l-3,17.26c-13.18-4-20.68-3.88-24.35-3.75-8.51.37-12.34,5-11.84,10,.67,5,6.5,7.26,13.34,9C280,252.84,296,260.84,296,275.1c0,12.5-9.68,22.64-26,26v12.13H248.78V301.86a94.58,94.58,0,0,1-26.52-6.13Z" fill="#642d10"/></g><g id="black_friday" data-name="black friday"><path d="M147.83,189.44a6.26,6.26,0,0,1,3.15-.55,8.54,8.54,0,0,1,3.5,1.09l5.38,2.88a10.13,10.13,0,0,1,4.87,5q1.2,3-1.05,7.21L158,215.49l-1.47-.79a3.87,3.87,0,0,1-1.39-1.11,1.93,1.93,0,0,1-.38-1.19,1.23,1.23,0,0,0-.13-.63,1.39,1.39,0,0,0-.61-.59L127,196.6a1.29,1.29,0,0,0-1.36,0c-.72.55-1.77.43-3.19-.33l-1.28-.69,5.36-10c1.51-2.81,3.3-4.42,5.39-4.87a9.82,9.82,0,0,1,6.78,1.3l4.34,2.34a7.48,7.48,0,0,1,2.44,2,6.59,6.59,0,0,1,1.23,2.55.86.86,0,0,0,.42.53A.8.8,0,0,0,147.83,189.44Zm-8,7.8a.64.64,0,0,0,1-.29l1.5-2.76a3,3,0,0,0,.21-2.81,5.18,5.18,0,0,0-2.34-2.22l-4-2.17a5.29,5.29,0,0,0-3.17-.75,2.93,2.93,0,0,0-2.26,1.7l-1.46,2.72a.67.67,0,0,0-.06.62,1,1,0,0,0,.42.45Zm12.26-2.31a5.28,5.28,0,0,0-3.15-.76,2.87,2.87,0,0,0-2.27,1.73l-1.73,3.2a.7.7,0,0,0,.31,1.06l11.54,6.21a.7.7,0,0,0,1.08-.32l1.73-3.19a3,3,0,0,0,.18-2.87,5.47,5.47,0,0,0-2.38-2.19Z" fill="#f5af29"/><path d="M176.28,175.29l4.63,4a1.34,1.34,0,0,1,.51,1,1.36,1.36,0,0,1-.28.94l-.73.84L169.53,194.8l-1.28-1.09a4.31,4.31,0,0,1-1.22-1.46,1.93,1.93,0,0,1-.14-1.26,1.54,1.54,0,0,0,.05-.65,1,1,0,0,0-.35-.62l-23.5-20.1a1.1,1.1,0,0,0-1.33-.33,4.71,4.71,0,0,1-1.31.06,2.68,2.68,0,0,1-1.48-.68l-1.28-1.1,6.08-7.11,1.29,1.11a2.48,2.48,0,0,1,.89,1.36,4.09,4.09,0,0,1,.15,1.29,1.33,1.33,0,0,0,0,.57,1.74,1.74,0,0,0,.55.65l23.44,20a1.74,1.74,0,0,0,.71.38.59.59,0,0,0,.62-.21l3.2-3.74a.64.64,0,0,0,.15-.64,1.14,1.14,0,0,0-.37-.57,1.64,1.64,0,0,1-.72-1.73,5,5,0,0,1,1-1.83Z" fill="#f5af29"/><path d="M199.26,161.51a2.84,2.84,0,0,1,1.29.27,3.09,3.09,0,0,1,1.32,1.08l.94,1.25-7.5,5.59-.9-1.21a2.9,2.9,0,0,1-.66-1.54,2.78,2.78,0,0,1,.14-1.22,3.52,3.52,0,0,0,.1-.64,1.07,1.07,0,0,0-.27-.7c-.49-.53-1-1-1.4-1.41l-1.06-1.06a6.52,6.52,0,0,1-.68-.72,1.29,1.29,0,0,0-.89-.45,1.59,1.59,0,0,0-.82.33l-5.12,3.81c-.48.36-.52.87-.13,1.51a5.45,5.45,0,0,0,.52.82,13.45,13.45,0,0,1,.77,1.28c.3.53.63,1.1,1,1.7a1.73,1.73,0,0,0,.53.53,1.22,1.22,0,0,0,.58.12,2.82,2.82,0,0,1,1.22.23,3.08,3.08,0,0,1,1.29,1.06l.89,1.22-7.5,5.59-.88-1.17a3.4,3.4,0,0,1-.67-1.61,2.81,2.81,0,0,1,.07-1.36,3.13,3.13,0,0,0,.12-.68,1.52,1.52,0,0,0-.14-.76q-3.91-7.87-6.92-14.06c-.86-1.8-1.7-3.52-2.55-5.2s-1.57-3.19-2.22-4.53-1.17-2.41-1.57-3.22-.61-1.26-.65-1.28a6.68,6.68,0,0,0-.43-.69.46.46,0,0,0-.51-.21c-1,.26-1.94-.26-2.9-1.54l-.77-1,6-4.48a2.79,2.79,0,0,1,2.11-.64,2.89,2.89,0,0,1,1.77.87,15.72,15.72,0,0,0,1.3,1.28c.78.72,1.76,1.66,3,2.8s2.54,2.39,4,3.81l4.57,4.29q5.4,5.11,12.24,11.55a1.66,1.66,0,0,0,.69.37A5.23,5.23,0,0,0,199.26,161.51Zm-13.52-3.89a.78.78,0,0,0,.1-1.19s-.26-.25-.71-.66-1-.94-1.68-1.61l-2.29-2.23c-.86-.84-1.74-1.68-2.65-2.53l-7.18-6.82-.09.06,4.49,8.84c.55,1.11,1.11,2.21,1.66,3.25s1.05,2,1.48,2.85l1.08,2.06c.28.54.44.82.46.85a.71.71,0,0,0,.51.41.75.75,0,0,0,.61-.14Z" fill="#f5af29"/><path d="M213.44,159.94a13.44,13.44,0,0,1-3.72,1.09,8.16,8.16,0,0,1-3.39-.21,7.54,7.54,0,0,1-2.9-1.64,8.91,8.91,0,0,1-2.17-3.11L190.78,132.3a8.86,8.86,0,0,1-.82-3.72,7.56,7.56,0,0,1,.82-3.24,8.58,8.58,0,0,1,2.2-2.65,14.33,14.33,0,0,1,3.33-2,14.16,14.16,0,0,1,3.72-1.09,8.92,8.92,0,0,1,3.44.17,7.4,7.4,0,0,1,3,1.57,8.67,8.67,0,0,1,2.2,3.11l1.69,3.85-2.21,1a3.11,3.11,0,0,1-2.42.12,3,3,0,0,1-1.68-1.67l-.33-.72a3.65,3.65,0,0,0-2.49-2.39,4.85,4.85,0,0,0-5.27,2.32,3.69,3.69,0,0,0,.09,3.47l10.32,23.42a3.57,3.57,0,0,0,2.26,2.07,4.21,4.21,0,0,0,3-.16,4.58,4.58,0,0,0,1.33-.89,4.31,4.31,0,0,0,.94-1.31,4.71,4.71,0,0,0,.44-1.53,3.26,3.26,0,0,0-.27-1.57l-.38-.88a3.37,3.37,0,0,1-.21-2.32,2.79,2.79,0,0,1,1.71-1.77l2.3-1,1.91,4.3a8.09,8.09,0,0,1,.75,3.66,6.69,6.69,0,0,1-1,3.1,8.5,8.5,0,0,1-2.31,2.53A16.65,16.65,0,0,1,213.44,159.94Z" fill="#f5af29"/><path d="M244.53,145.91a2.47,2.47,0,0,1,1.16.61,3.13,3.13,0,0,1,.74,1.72l.4,2.08-1.1.22-2.53.49a5.67,5.67,0,0,1-1.14.14,2.4,2.4,0,0,1-.89-.14,2.53,2.53,0,0,1-.82-.52,10.73,10.73,0,0,1-.92-1c-.17-.2-.42-.53-.8-1s-.8-1-1.29-1.65l-1.58-2.06c-.56-.72-1.12-1.48-1.7-2.24-1.33-1.77-2.81-3.69-4.45-5.8l-.55,1.88,1.86,9.4a1.35,1.35,0,0,0,.26.63,2.16,2.16,0,0,0,.5.36,4.14,4.14,0,0,1,1.07.76,2.67,2.67,0,0,1,.74,1.45l.32,1.6-9.13,1.79-.32-1.59a2.57,2.57,0,0,1,.13-1.62,4.23,4.23,0,0,1,.71-1.11,3.93,3.93,0,0,0,.27-.48,1.76,1.76,0,0,0,.06-.74l-6-30.71a1.77,1.77,0,0,0-.33-.63,1.83,1.83,0,0,0-.43-.32,4.06,4.06,0,0,1-1.06-.75,2.61,2.61,0,0,1-.75-1.46l-.32-1.65,9.06-1.79.33,1.65a2.62,2.62,0,0,1-.13,1.63,4.1,4.1,0,0,1-.7,1.1,1.12,1.12,0,0,0-.34.47,1.39,1.39,0,0,0,0,.74l2,10.33,4.72-14.63a4.51,4.51,0,0,1,.54-1.31,5.57,5.57,0,0,1,.83-1,2.88,2.88,0,0,1,1.41-.68l3.47-.67.42,2.14a2.45,2.45,0,0,1-.28,1.94,4.42,4.42,0,0,1-1.05,1.13,1.42,1.42,0,0,0-.52.67c-.1.25-.2.54-.32.86-.06.13-.18.5-.39,1.13l-.71,2.32c-.28.91-.58,1.9-.9,3s-.62,2.11-.92,3.09-.57,1.89-.8,2.67-.38,1.36-.47,1.67-.06.37-.09.52a1.78,1.78,0,0,0,.26.69,3.79,3.79,0,0,0,.51.72c.33.4.76,1,1.26,1.62s1.09,1.4,1.74,2.21,1.33,1.66,2,2.53l5.34,6.78a2.67,2.67,0,0,0,.67.55A3.38,3.38,0,0,0,244.53,145.91Z" fill="#f5af29"/><path d="M289.61,112.59a1.2,1.2,0,0,1,.33,1.11l-1,5.79-1.82-.31a3.93,3.93,0,0,1-1.86-.77,1.5,1.5,0,0,1-.55-1.46c.1-.5-.29-.84-1.14-1l-5-.86a.82.82,0,0,0-.62.11.78.78,0,0,0-.35.56l-2.09,12.26a.91.91,0,0,0,.08.7,1,1,0,0,0,.61.27l6.69,1.13c.51.1.72.41.62,1l-.49,2.94c-.09.5-.38.72-.86.64l-6.73-1.14a.83.83,0,0,0-.62.11.78.78,0,0,0-.35.56l-2.07,12.1a1.46,1.46,0,0,0,0,.81,2.59,2.59,0,0,0,.37.51,4,4,0,0,1,.69,1.08,2.84,2.84,0,0,1,.15,1.62l-.27,1.6-9.17-1.57.27-1.6a2.73,2.73,0,0,1,.71-1.48,4.44,4.44,0,0,1,1-.78,5,5,0,0,0,.47-.38,1.34,1.34,0,0,0,.29-.74l5.23-30.59a1.13,1.13,0,0,0-.47-1.27,2.16,2.16,0,0,1-.73-1,4,4,0,0,1,0-1.92l.26-1.5,17.51,3A1.67,1.67,0,0,1,289.61,112.59Z" fill="#f5af29"/><path d="M306.91,158.18a4.55,4.55,0,0,1,.55,1,2,2,0,0,1-.15,1.48l-.82,2-4.31-1.75a2.81,2.81,0,0,1-1.72-1.5,2.76,2.76,0,0,1,.1-2.11l4.1-10.2a5,5,0,0,0,.39-3.13,3,3,0,0,0-2-2l-3.21-1.3a.67.67,0,0,0-1,.45L294.49,152a1.26,1.26,0,0,0-.14.79,3.11,3.11,0,0,0,.18.57,4.13,4.13,0,0,1,.48,1.21,2.57,2.57,0,0,1-.16,1.62l-.61,1.51-8.64-3.49.62-1.49a2.57,2.57,0,0,1,1-1.29,4.42,4.42,0,0,1,1.18-.55,5.9,5.9,0,0,0,.55-.27,1.52,1.52,0,0,0,.45-.67L301,121.08a1.35,1.35,0,0,0,.11-.71,1,1,0,0,0-.23-.5,2.77,2.77,0,0,1-.45-1.16,3.05,3.05,0,0,1,.27-1.81l.61-1.5,10.7,4.31a10.75,10.75,0,0,1,3.53,2.19,7.5,7.5,0,0,1,1.84,2.82,7.67,7.67,0,0,1,.39,3.33,13.83,13.83,0,0,1-.95,3.7l-2.16,5.34a7.24,7.24,0,0,1-1.91,2.77,6.92,6.92,0,0,1-2.67,1.55c-.43.18-.54.55-.32,1.09a5.56,5.56,0,0,1,.78,3.16,10.56,10.56,0,0,1-.84,3.7L306.67,157c-.14.34-.17.59-.07.71A3.37,3.37,0,0,0,306.91,158.18Zm4.94-28.87a5.26,5.26,0,0,0,.41-3.19,3,3,0,0,0-2-2l-3.07-1.23c-.55-.23-.93-.1-1.12.38l-5,12.37a.51.51,0,0,0,.05.5.69.69,0,0,0,.35.33l3.26,1.33a2.93,2.93,0,0,0,2.86-.14,5.37,5.37,0,0,0,1.93-2.59Z" fill="#f5af29"/><path d="M317.77,163.83l-.07.1a1.28,1.28,0,0,0-.24.71,2.15,2.15,0,0,0,.12.53,4.38,4.38,0,0,1,.26,1.28,2.68,2.68,0,0,1-.47,1.57l-.9,1.41-7.9-5,.91-1.43a2.66,2.66,0,0,1,1.15-1.09,3.68,3.68,0,0,1,1.33-.32,1.06,1.06,0,0,0,.56-.11,1.45,1.45,0,0,0,.5-.54l.06-.09,16.61-26.23a1.66,1.66,0,0,0,.29-.74,1.85,1.85,0,0,0-.12-.6,4.75,4.75,0,0,1-.24-1.28,2.61,2.61,0,0,1,.46-1.57l.86-1.38,7.91,5-.87,1.38a2.79,2.79,0,0,1-1.21,1.09,4.56,4.56,0,0,1-1.26.31,1.92,1.92,0,0,0-.6.16,1.61,1.61,0,0,0-.55.59Z" fill="#f5af29"/><path d="M356.15,147.87a11.56,11.56,0,0,1,2.59,3.22,7,7,0,0,1,.08,6.41,13.17,13.17,0,0,1-2.16,3.11l-16,17.52a9.88,9.88,0,0,1-6,3.49c-2.16.28-4.41-.64-6.76-2.78l-8.9-8.1,1-1.11a4.25,4.25,0,0,1,1.51-1.18,2.12,2.12,0,0,1,1.28-.08,1.25,1.25,0,0,0,1.28-.41L345,145.09a1.28,1.28,0,0,0,.38-.76,1.12,1.12,0,0,0-.09-.64,1.9,1.9,0,0,1,0-1.25,3.91,3.91,0,0,1,.94-1.48l1.1-1.21Zm-3.51,8.93a5.5,5.5,0,0,0,1.52-2.87A3,3,0,0,0,353,151.3l-2.85-2.6a.69.69,0,0,0-.61-.21.76.76,0,0,0-.5.27l-20.93,23a.9.9,0,0,0-.23.52.51.51,0,0,0,.16.48l3,2.72a2.94,2.94,0,0,0,2.71.88,5.37,5.37,0,0,0,2.71-1.77Z" fill="#f5af29"/><path d="M352.67,203.07a2.79,2.79,0,0,1-.32,1.28,3.16,3.16,0,0,1-1.13,1.28l-1.29.89-5.29-7.73,1.25-.85a3.06,3.06,0,0,1,1.56-.6,2.66,2.66,0,0,1,1.2.2,5.63,5.63,0,0,0,.64.13,1.17,1.17,0,0,0,.72-.24c.53-.48,1-.92,1.45-1.35l1.1-1a5.52,5.52,0,0,1,.75-.65,1.28,1.28,0,0,0,.49-.88,1.48,1.48,0,0,0-.31-.82l-3.61-5.26c-.33-.5-.83-.57-1.48-.21-.17.08-.46.25-.86.49a12.69,12.69,0,0,1-1.31.72c-.54.27-1.12.58-1.75.92a1.87,1.87,0,0,0-.53.5,1.27,1.27,0,0,0-.15.57,2.76,2.76,0,0,1-.27,1.21,3,3,0,0,1-1.11,1.23l-1.25.85L335.91,186l1.2-.82a3.39,3.39,0,0,1,1.65-.62,3,3,0,0,1,1.36.12,3,3,0,0,0,.68.15,1.46,1.46,0,0,0,.76-.11q8-3.58,14.33-6.35l5.29-2.33c1.72-.77,3.25-1.45,4.62-2l3.28-1.45c.84-.37,1.28-.56,1.31-.59.26-.14.5-.27.7-.4a.45.45,0,0,0,.22-.5c-.21-1,.34-1.94,1.67-2.83l1.06-.72,4.24,6.19a2.85,2.85,0,0,1-.4,3.87,15.83,15.83,0,0,0-1.33,1.23c-.75.75-1.73,1.7-2.9,2.85l-4,3.87-4.46,4.39-12,11.77a1.6,1.6,0,0,0-.39.68C352.73,202.6,352.69,202.83,352.67,203.07Zm4.43-13.35a.75.75,0,0,0,.57.35.79.79,0,0,0,.61-.21l.69-.68,1.67-1.62,2.32-2.21q1.31-1.21,2.63-2.55l7.1-6.89-.06-.09-9,4.12c-1.15.52-2.25,1-3.33,1.53l-2.9,1.38-2.09,1-.87.43a.75.75,0,0,0-.34,1.11Z" fill="#f5af29"/><path d="M395.61,207.68l-1.54.67a3.05,3.05,0,0,1-1.6.26,2.89,2.89,0,0,1-1.16-.42l-.58-.35a1,1,0,0,0-.79-.14,11,11,0,0,0-1.12.09l-2.51.28-3.43.36-3.93.4c-3.12.29-6.64.64-10.53,1.05l-9.71,4.21-.06,0a1.52,1.52,0,0,0-.66.45,1.1,1.1,0,0,0-.18.53,4.53,4.53,0,0,1-.53,1.21,2.57,2.57,0,0,1-1.26,1l-1.54.69-3.73-8.6,1.54-.66a2.63,2.63,0,0,1,1.63-.22,4.73,4.73,0,0,1,1.22.44,1.25,1.25,0,0,0,.53.23,1.51,1.51,0,0,0,.72-.16l9.81-4.28,8.1-7.06c1-.89,2-1.77,3-2.63l2.63-2.29c.77-.65,1.4-1.2,1.89-1.63a6.48,6.48,0,0,1,.82-.7,1.35,1.35,0,0,0,.37-.55l.15-.48a3.35,3.35,0,0,1,.48-1.15,2.77,2.77,0,0,1,1.27-1l1.54-.67,3.62,8.33-1.69.73a2.59,2.59,0,0,1-1.53.27,3.12,3.12,0,0,1-1-.43l-.64-.33a.6.6,0,0,0-.68.11c-.07,0-.28.2-.64.5s-.82.67-1.36,1.11l-1.8,1.48c-.66.55-1.32,1.09-2,1.62-1.59,1.31-3.38,2.76-5.38,4.36l.14.3q3.85-.38,7-.74c.86-.07,1.72-.17,2.57-.26l2.34-.24c.7-.09,1.26-.14,1.72-.18a4.3,4.3,0,0,0,.79-.1.64.64,0,0,0,.56-.39c.07-.22.13-.44.18-.67a3.07,3.07,0,0,1,.47-1.12,3,3,0,0,1,1.31-1l1.54-.66Z" fill="#f5af29"/></g></svg>