<svg id="Layer_1" data-name="Layer 1" xmlns="http://www.w3.org/2000/svg" viewBox="0 0 512 512"><title>turkey-gobble</title><path d="M256,0C114.62,0,0,114.61,0,256S114.62,512,256,512,512,397.38,512,256,397.39,0,256,0Z" fill="#642d10"/><path d="M217.51,187.59c.9-17.17,3.6-32.88,7.66-45.87-10.75-11.86-21.3-18.71-29.45-18.54a13,13,0,0,0-4.46.74c-8.05,2.66-12.8,14.14-12.74,31.16,0,1.31.09,2.71.13,4.06C190.93,165.17,204.42,175,217.51,187.59Z" fill="#ec582d"/><path d="M333.35,159.15c0-1.36.13-2.75.13-4.06.06-17-4.69-28.5-12.74-31.16a13,13,0,0,0-4.45-.74c-8.16-.17-18.7,6.69-29.45,18.54,4.06,13,6.76,28.69,7.66,45.87C307.58,175,321.07,165.17,333.35,159.15Z" fill="#ec582d"/><path d="M220.54,204.25a51.36,51.36,0,0,1,11.58-10.89,28.34,28.34,0,1,1,47.9,0,51.64,51.64,0,0,1,12.1,11.52c0-.78,0-1.55,0-2.34,0-53.09-16-96.14-35.8-96.14s-35.81,43.05-35.81,96.14C220.53,203.11,220.54,203.68,220.54,204.25Z" fill="#f5af29"/><path d="M153.31,238.65c8.18,0,16.79.43,25.65,1.3a253.9,253.9,0,0,1,28.57,4.5c0-.31,0-.61,0-.92A67.3,67.3,0,0,1,210.67,223c-3.12-1.79-6.33-3.54-9.67-5.23-26.88-13.74-53.61-21-72.34-21-12.22,0-20.72,3.08-24.08,8.79a12.64,12.64,0,0,0-1.74,6.62c-.11,7.9,6.1,18.34,17,29.22A184.61,184.61,0,0,1,153.31,238.65Z" fill="#ec582d"/><path d="M207.66,247.5a245.35,245.35,0,0,0-29-4.61,250.72,250.72,0,0,0-25.31-1.29c-17.94,0-33.67,2.08-45,5.71s-17.88,8.81-18.43,14.31a5.7,5.7,0,0,0-.06,1c-.16,6.6,8.43,14.46,23.36,20.89s35.67,11.64,59,14c8.75.87,17.26,1.28,25.32,1.28a172.12,172.12,0,0,0,36.74-3.54c-.12-.11-.21-.25-.33-.37C219.15,285.82,208.88,268.11,207.66,247.5Z" fill="#f5af29"/><path d="M294.86,200.26c0,2.8-.12,5.51-.22,8.25a60.53,60.53,0,0,1,5.83,11.63c2.91-1.65,5.9-3.3,9-4.88,21.2-10.81,42.23-17.69,59.75-20.24,3.1-8.14,4.76-15.53,4.75-21.64,0-7-2.07-12.1-6.1-15.09q-4-3-10.41-3C342,155.18,317.51,169,294.7,191.62,294.8,194.47,294.86,197.34,294.86,200.26Z" fill="#f5af29"/><path d="M301.46,223a67.71,67.71,0,0,1,3.2,20.56c0,.3,0,.58,0,.88A251.8,251.8,0,0,1,333,240c8.87-.88,17.48-1.3,25.65-1.3a184.56,184.56,0,0,1,33.51,2.81c10.86-10.88,17.07-21.32,17-29.22a12.63,12.63,0,0,0-1.74-6.62c-3.36-5.72-11.86-8.8-24.08-8.79-18.72,0-45.45,7.26-72.33,21Q306.06,220.32,301.46,223Z" fill="#ec582d"/><path d="M422.08,261.61c-.55-5.5-7.08-10.67-18.44-14.31s-27-5.72-45-5.71a250.8,250.8,0,0,0-25.31,1.29,243.19,243.19,0,0,0-28.89,4.58C303.27,268.23,292.86,286,277.9,295l-.17.2a172.07,172.07,0,0,0,36.73,3.54c8.05,0,16.56-.41,25.31-1.28,23.33-2.35,44.14-7.52,59-14s23.52-14.3,23.37-20.89A7.18,7.18,0,0,0,422.08,261.61Z" fill="#f5af29"/><path d="M202.54,215.25c3.13,1.61,6.15,3.26,9.11,4.95a60.34,60.34,0,0,1,5.72-11.47c-.11-2.81-.23-5.6-.23-8.48s.06-5.79.17-8.64C194.49,169,170,155.18,154.56,155.29q-6.37,0-10.41,3c-4,3-6.09,8.12-6.09,15.09,0,6.11,1.64,13.5,4.74,21.64C160.31,197.56,181.35,204.44,202.54,215.25Z" fill="#f5af29"/><path d="M302.22,243.54c0-20.62-9.5-39.37-24.8-49l-.82-.51.56-.79a25.66,25.66,0,0,0,4.81-15,25.9,25.9,0,1,0-47,15l.56.79-.82.51c-15.3,9.59-24.8,28.35-24.8,49,0,30.47,20.71,55.26,46.15,55.26S302.22,274,302.22,243.54Z" fill="#642d10"/><polygon points="258.44 186.86 255.06 192.71 251.69 186.86 248.31 181.01 255.06 182.43 261.82 181.01 258.44 186.86" fill="#ec582d"/><path d="M263.17,175.45a6.81,6.81,0,1,1,6.81-6.82,6.82,6.82,0,0,1-6.81,6.82Z" fill="#feeac5"/><circle cx="263.4" cy="171.41" r="4.04" fill="#403f02"/><path d="M246.56,175.45a6.81,6.81,0,1,1,6.81-6.82,6.82,6.82,0,0,1-6.81,6.82Z" fill="#feeac5"/><ellipse cx="246.78" cy="171.41" rx="4.05" ry="4.04" fill="#403f02"/><path d="M167.55,315.08c3.64-8,8.92-11.83,13.35-11.83,25.28,0,11.4,48-17.3,48a23.4,23.4,0,0,1-4.57-.48l-2.25,4.94C152,366,153,372.84,158.47,372.84c6.29,0,11.17-6.69,15.44-16.09l.85-1.74h8.07l-10.24,21.91c6.37-3.39,12-9.6,18.7-19.19l.54-.77a7.89,7.89,0,0,1,3,3.49c-8.85,12.8-17.07,20-25.44,23.26L163.2,397c-5.81,12.4-17.68,10.37-17.68.67,0-7.55,6.75-13.08,17.68-17.25l2.1-4.55a14,14,0,0,1-8.77,3.2c-11.4,0-12.41-13.57-6.75-25.78l2.41-5.23C145.67,343.76,142,336,142,328a24.91,24.91,0,0,1,8.3-18.81l2.64,5.92a17.63,17.63,0,0,0-5.19,12.69c0,5.62,2.48,11.24,7.22,14.34Zm-11.09,80.25,3.65-8.15c-6.21,3-8.07,6-8.07,8.63S154.75,399.1,156.45,395.33Zm7.14-50.79c21.1,0,30.1-32.56,17.3-32.56-2.26,0-4.9,2.23-7.3,7.37L162,344.54Z" fill="#89914f"/><path d="M211.66,370.22c-10.86,17.16-30.33,9.11-20.17-12.7l3.49-7.47,4-8.62c4.66-10.08,9.46-13.19,15.66-13.19,7.61,0,12.11,10,7.22,20.55l-7.6,16.38c4-.1,8.53-2.52,12.18-7.47l.55-.77a7.84,7.84,0,0,1,3,3.49c-4.11,6.11-11.71,9.79-16.52,9.79Zm-2.33-12.6h.39l5.9-12.6c4.88-10.47-2.87-15.22-8.54-3.2l-3.87,8.24-6.14,13.28c-4.8,10.47,4.42,12,8.23,3.88l.07-.19a7.94,7.94,0,0,1-.77-3.39C204.6,360.34,206.69,357.62,209.33,357.62Z" fill="#89914f"/><path d="M247.4,330.49a8.21,8.21,0,0,1,5.27-2.23c4.5,0,7.29,3.88,7.29,9,0,3.2-1,7.07-3,11.53l-7.6,16.38c4-.1,8.53-2.42,12.18-7.47l.54-.77a7.85,7.85,0,0,1,3,3.49c-4.11,6.11-11.71,9.79-16.52,9.79a10.68,10.68,0,0,1-1.78-.1c-4,6.49-9.24,9.4-13.73,9.4-5.2,0-9.3-3.88-9.3-10.76a26.58,26.58,0,0,1,2.87-11.24l22.81-49.24h8.22Zm-7.21,37.12c-2.95-2.32-4.5-6.11-5.13-10.47l-2.87,6.2a13.38,13.38,0,0,0-1.39,5.23c0,2.52,1.48,3.88,3.26,3.88C236.07,372.45,238.56,370.9,240.19,367.61Zm2.32-4.94L250.73,345a14.61,14.61,0,0,0,1.55-6c0-2.72-1.24-4.36-3-4.36-4.57,0-10.16,11.73-10.16,18.9C239.1,357.62,240.42,360.72,242.51,362.66Z" fill="#89914f"/><path d="M282.52,330.49a8.22,8.22,0,0,1,5.27-2.23c4.5,0,7.29,3.88,7.29,9,0,3.2-1,7.07-3,11.53l-7.6,16.38c4-.1,8.54-2.42,12.18-7.47l.54-.77a7.9,7.9,0,0,1,3,3.49c-4.12,6.11-11.71,9.79-16.52,9.79a10.67,10.67,0,0,1-1.78-.1c-4,6.49-9.24,9.4-13.73,9.4-5.21,0-9.31-3.88-9.31-10.76a26.74,26.74,0,0,1,2.87-11.24l22.81-49.24h8.22Zm-7.21,37.12c-3-2.32-4.5-6.11-5.13-10.47l-2.87,6.2a13.38,13.38,0,0,0-1.39,5.23c0,2.52,1.48,3.88,3.26,3.88C271.19,372.45,273.68,370.9,275.31,367.61Zm2.32-4.94L285.86,345a14.68,14.68,0,0,0,1.55-6c0-2.72-1.24-4.36-3-4.36-4.57,0-10.15,11.73-10.15,18.9C274.22,357.62,275.54,360.72,277.63,362.66Z" fill="#89914f"/><path d="M317.09,356.94a7.88,7.88,0,0,1,3,3.49c-6.67,9.69-14.35,18.61-21,18.61-6.51,0-8.92-6.88-5.51-14.34l26.06-56.41h8.07l-27.14,59c-1.87,4-.86,5.53.93,5.53,3.57,0,9.24-6.69,15.05-15.12Z" fill="#89914f"/><path d="M324.22,359.08l-.78,1.74c-3.72,8.15-.77,12,4.2,12,5.66,0,13.11-6.69,18.92-15.12l.55-.77a7.87,7.87,0,0,1,3,3.49c-6.66,9.69-15.75,18.61-24.9,18.61-9.54,0-13.88-9.89-8.84-20.64l8.46-18.13c3.41-7.37,8.62-11.63,15.13-11.63s10.78,7,6.44,16.28l-1.16,2.52C339.2,360.53,329.42,361.79,324.22,359.08Zm2.32-4.94c3,1.35,8.22,1.55,12.1-6.69l1.17-2.52c4.8-10.47-3.42-12.11-8.07-2.13Z" fill="#89914f"/><path d="M352.82,367.31c2.64,0,4.73,2.62,4.73,5.92s-2.09,5.81-4.73,5.81-4.65-2.52-4.65-5.81S350.19,367.31,352.82,367.31Zm.39-4,25.37-55.05h8.07l-25.29,55.05Z" fill="#89914f"/></svg>