<svg id="Layer_1" data-name="Layer 1" xmlns="http://www.w3.org/2000/svg" viewBox="0 0 512 512"><title>sun</title><path d="M0,256C0,114.61,114.61,0,256,0S512,114.63,512,256,397.38,512,256,512,0,397.39,0,256Z" fill="#ff3332"/><rect x="251.53" y="111.76" width="9.85" height="46.77" fill="#fff"/><rect x="251.53" y="352.98" width="9.85" height="49.23" fill="#fff"/><rect x="352.45" y="252.06" width="49.23" height="9.85" fill="#fff"/><rect x="111.23" y="252.06" width="46.77" height="9.85" fill="#fff"/><rect x="326.2" y="159.45" width="48.58" height="12.15" transform="translate(-14.36 296.39) rotate(-45.01)" fill="#fff"/><rect x="154.44" y="331.21" width="48.58" height="12.15" transform="translate(-186.15 225.17) rotate(-45)" fill="#fff"/><rect x="344.42" y="313" width="12.15" height="48.58" transform="translate(-135.84 346.53) rotate(-44.99)" fill="#fff"/><rect x="172.66" y="141.23" width="12.14" height="48.58" transform="translate(-64.7 174.86) rotate(-45)" fill="#fff"/><path d="M325.75,247.51a66.8,66.8,0,1,1-66.8-66.8A66.8,66.8,0,0,1,325.75,247.51Z" fill="#fff"/></svg>