<svg id="Layer_1" data-name="Layer 1" xmlns="http://www.w3.org/2000/svg" viewBox="0 0 512 512"><title>standing-stretching-arms-raised-flat</title><path d="M55,9.14H457a55,55,0,0,1,55,55V447.88a55,55,0,0,1-55,55H55a55,55,0,0,1-55-55V64.12a55,55,0,0,1,55-55Z" transform="translate(512) rotate(90)" fill="#e6d6a6"/><rect x="20.23" y="11.1" width="471.53" height="489.81" rx="43.89" ry="43.89" fill="#008982"/><path d="M256,161.35q14.41,0,24.65-11.3t10.14-27.33q0-16.07-10.14-27.36a32.29,32.29,0,0,0-49.24,0q-10.23,11.3-10.23,27.36a39.4,39.4,0,0,0,10.23,27.33Q241.59,161.35,256,161.35Z" fill="#e6d6a6"/><path d="M332.63,61.75A19.34,19.34,0,0,0,312.5,80.27c-1.68,40.07-10.19,70.52-25.33,90.84q-32-8-62.4-.12c-15.09-20.31-23.57-50.73-25.24-90.72a19.35,19.35,0,0,0-38.66,1.62c1.22,29.18,5.8,54.73,13.59,75.93,8.23,22.38,20.27,40.64,35.79,54.27a19.27,19.27,0,0,0,7,3.94v79.9h0c-1.55,28.9-2.54,57.86-2.94,86.09-.23,16.41-.26,32.94-.09,49.11a19.34,19.34,0,0,0,19.34,19.15h.2a19.35,19.35,0,0,0,19.14-19.54c-.16-15.87-.13-32.07.09-48.18.39-28,1.38-56.82,2.94-85.52,1.56,28.72,2.54,57.49,2.93,85.53.23,16.09.26,32.29.09,48.17a19.34,19.34,0,0,0,19.14,19.54h.2a19.34,19.34,0,0,0,19.34-19.15c.17-16.19.14-32.71-.09-49.11-.4-28.23-1.39-57.19-2.94-86.1h0V216.06a19.26,19.26,0,0,0,7.15-4c15.51-13.62,27.55-31.88,35.78-54.26,7.79-21.2,12.37-46.75,13.59-75.93a19.33,19.33,0,0,0-18.51-20.14Z" fill="#e6d6a6"/></svg>