<svg id="Layer_1" data-name="Layer 1" xmlns="http://www.w3.org/2000/svg" viewBox="0 0 512 512"><title>frog</title><path d="M0,256C0,114.61,114.61,0,256,0S512,114.63,512,256,397.38,512,256,512,0,397.39,0,256Z" fill="#ff352e"/><path d="M143.22,334.81a13.15,13.15,0,0,0,18.13,1.52c22.48-18.34,40.23-32.84,88.41-7,23.15,12.43,41.81,17.11,57.36,17.11,27.2,0,44.84-14.38,60.08-26.82A12.23,12.23,0,0,0,368.78,302a13.14,13.14,0,0,0-18.13-1.52c-22.48,18.35-40.23,32.84-88.43,7-63.65-34.16-93.47-9.82-117.43,9.73A12.23,12.23,0,0,0,143.22,334.81Z" fill="#fff"/><path d="M350.65,175.69c-22.48,18.35-40.23,32.84-88.43,7-63.65-34.16-93.47-9.82-117.43,9.73A12.22,12.22,0,0,0,143.22,210a13.14,13.14,0,0,0,18.13,1.52c22.48-18.33,40.24-32.84,88.41-7,23.15,12.41,41.81,17.1,57.36,17.1,27.2,0,44.84-14.38,60.08-26.83a12.22,12.22,0,0,0,1.57-17.58A13.14,13.14,0,0,0,350.65,175.69Z" fill="#fff"/><path d="M161.35,273.9c22.48-18.33,40.24-32.84,88.41-7C272.91,279.34,291.58,284,307.13,284c27.2,0,44.84-14.38,60.08-26.82a12.23,12.23,0,0,0,1.57-17.59,13.14,13.14,0,0,0-18.13-1.52c-22.48,18.35-40.23,32.84-88.43,7-63.65-34.16-93.47-9.82-117.43,9.73a12.22,12.22,0,0,0-1.57,17.58A13.14,13.14,0,0,0,161.35,273.9Z" fill="#fff"/></svg>