<svg id="Layer_1" data-name="Layer 1" xmlns="http://www.w3.org/2000/svg" viewBox="0 0 512 512"><title>corn</title><path d="M256,0C114.63,0,0,114.63,0,256S114.63,512,256,512s256-114.6,256-256S397.39,0,256,0Z" fill="#642d10"/><path d="M169.69,204.65v-4a4.88,4.88,0,0,1,4.86-4.88h7.39a4.89,4.89,0,0,1,4.88,4.88v4a4.89,4.89,0,0,1-4.88,4.89h-7.39A4.87,4.87,0,0,1,169.69,204.65Z" fill="#f5af29"/><path d="M174.55,226.17h7.39a4.88,4.88,0,0,0,4.88-4.87v-4.07a4.89,4.89,0,0,0-4.88-4.88h-7.39a4.88,4.88,0,0,0-4.86,4.88v4.07A4.87,4.87,0,0,0,174.55,226.17Z" fill="#f5af29"/><path d="M186.81,233.88a4.89,4.89,0,0,0-4.88-4.88h-7.39A4.82,4.82,0,0,0,170.6,231c2.05,3.58,4.12,7.49,6.12,11.76h5.21a4.88,4.88,0,0,0,4.88-4.88Z" fill="#f5af29"/><path d="M186.81,250.5a4.89,4.89,0,0,0-4.88-4.87H178c1.9,4.21,3.72,8.74,5.4,13.55a4.88,4.88,0,0,0,3.38-4.63Z" fill="#f5af29"/><path d="M184.78,263.19q1.06,3.26,2,6.72v-2.77A4.86,4.86,0,0,0,184.78,263.19Z" fill="#f5af29"/><path d="M206.76,200.61a4.88,4.88,0,0,0-4.85-4.88h-7.39a4.88,4.88,0,0,0-4.87,4.88v4a4.88,4.88,0,0,0,4.87,4.89h7.39a4.87,4.87,0,0,0,4.85-4.89Z" fill="#f5af29"/><path d="M206.76,217.24a4.87,4.87,0,0,0-4.85-4.88h-7.39a4.88,4.88,0,0,0-4.87,4.88v4.07a4.88,4.88,0,0,0,4.87,4.87h7.39a4.87,4.87,0,0,0,4.85-4.87Z" fill="#f5af29"/><path d="M206.76,233.88A4.88,4.88,0,0,0,201.9,229h-7.39a4.88,4.88,0,0,0-4.87,4.88v4a4.88,4.88,0,0,0,4.87,4.88h7.39a4.87,4.87,0,0,0,4.85-4.88Z" fill="#f5af29"/><path d="M206.76,250.5a4.87,4.87,0,0,0-4.85-4.87h-7.39a4.88,4.88,0,0,0-4.87,4.87v4.05a4.87,4.87,0,0,0,4.87,4.87h7.39a4.86,4.86,0,0,0,4.85-4.87Z" fill="#f5af29"/><path d="M206.76,267.14a4.88,4.88,0,0,0-4.85-4.88h-7.39a4.88,4.88,0,0,0-4.87,4.88v4a4.88,4.88,0,0,0,4.87,4.88h7.39a4.87,4.87,0,0,0,4.85-4.88Z" fill="#f5af29"/><path d="M206.76,283.77a4.87,4.87,0,0,0-4.85-4.87h-7.39a4.9,4.9,0,0,0-4.68,3.5c.62,3,1.18,6.05,1.67,9.2a.29.29,0,0,0,0,.06,4.8,4.8,0,0,0,3,1h7.39a4.87,4.87,0,0,0,4.85-4.85Z" fill="#f5af29"/><path d="M206.76,300.4a4.87,4.87,0,0,0-4.85-4.88h-7.39a5,5,0,0,0-2.28.56c.73,4.49,1.51,8.89,2.33,13.24h7.34a4.87,4.87,0,0,0,4.85-4.88Z" fill="#f5af29"/><path d="M206.76,317a4.87,4.87,0,0,0-4.85-4.86h-6.8q1.37,7.07,2.82,13.8h4a4.87,4.87,0,0,0,4.85-4.88Z" fill="#f5af29"/><path d="M226.72,200.61a4.88,4.88,0,0,0-4.86-4.88h-7.39a4.88,4.88,0,0,0-4.87,4.88v4a4.88,4.88,0,0,0,4.87,4.89h7.39a4.88,4.88,0,0,0,4.86-4.89Z" fill="#f5af29"/><path d="M226.72,217.24a4.88,4.88,0,0,0-4.86-4.88h-7.39a4.88,4.88,0,0,0-4.87,4.88v4.07a4.88,4.88,0,0,0,4.87,4.87h7.39a4.87,4.87,0,0,0,4.86-4.87Z" fill="#f5af29"/><path d="M226.72,233.88a4.88,4.88,0,0,0-4.86-4.88h-7.39a4.88,4.88,0,0,0-4.87,4.88v4a4.88,4.88,0,0,0,4.87,4.88h7.39a4.88,4.88,0,0,0,4.86-4.88Z" fill="#f5af29"/><path d="M226.72,250.5a4.88,4.88,0,0,0-4.86-4.87h-7.39a4.88,4.88,0,0,0-4.87,4.87v4.05a4.87,4.87,0,0,0,4.87,4.87h7.39a4.87,4.87,0,0,0,4.86-4.87Z" fill="#f5af29"/><path d="M226.72,267.14a4.88,4.88,0,0,0-4.86-4.88h-7.39a4.88,4.88,0,0,0-4.87,4.88v4a4.88,4.88,0,0,0,4.87,4.88h7.39a4.88,4.88,0,0,0,4.86-4.88Z" fill="#f5af29"/><path d="M225.92,290.51c.25-.69.5-1.37.75-2a3.9,3.9,0,0,0,0-.63v-4.07a4.87,4.87,0,0,0-4.86-4.87h-7.39a4.88,4.88,0,0,0-4.87,4.87v4.07a4.87,4.87,0,0,0,4.87,4.85h7.39A4.9,4.9,0,0,0,225.92,290.51Z" fill="#f5af29"/><path d="M224,296a4.84,4.84,0,0,0-2.16-.51h-7.39a4.88,4.88,0,0,0-4.87,4.88v4.05a4.88,4.88,0,0,0,4.87,4.88h5.8C221.42,304.73,222.67,300.28,224,296Z" fill="#f5af29"/><path d="M219.58,312.16h-5.11A4.87,4.87,0,0,0,209.6,317v4.07a4.88,4.88,0,0,0,4.87,4.88h2.11C217.52,321.29,218.51,316.66,219.58,312.16Z" fill="#f5af29"/><path d="M240.13,195.73h-5.7a4.88,4.88,0,0,0-4.88,4.88v4a4.88,4.88,0,0,0,4.88,4.89h7.39a4.88,4.88,0,0,0,4.87-4.89v-4a4.88,4.88,0,0,0-4.87-4.88Z" fill="#f5af29"/><path d="M176.23,192.9h7A4.73,4.73,0,0,0,187.8,188V184a4.72,4.72,0,0,0-4.55-4.86h-7a4.72,4.72,0,0,0-4.55,4.86V188A4.73,4.73,0,0,0,176.23,192.9Z" fill="#f5af29"/><path d="M206.76,184a4.72,4.72,0,0,0-4.55-4.86h-7a4.72,4.72,0,0,0-4.56,4.86V188a4.73,4.73,0,0,0,4.56,4.87h7a4.73,4.73,0,0,0,4.55-4.87Z" fill="#f5af29"/><path d="M209.6,188a4.72,4.72,0,0,0,4.56,4.87h7a4.72,4.72,0,0,0,4.56-4.87V184a4.72,4.72,0,0,0-4.56-4.86h-7A4.72,4.72,0,0,0,209.6,184Z" fill="#f5af29"/><path d="M238.44,179.1h-5.32a4.73,4.73,0,0,0-4.56,4.86V188a4.73,4.73,0,0,0,4.56,4.87h7a4.73,4.73,0,0,0,4.56-4.87V184a4.72,4.72,0,0,0-4.56-4.86Z" fill="#f5af29"/><path d="M177.91,176.28h6.65c2.34,0,4.24-2.19,4.24-4.87v-4.05c0-2.7-1.9-4.88-4.24-4.88h-6.65c-2.33,0-4.24,2.19-4.24,4.88v4.05C173.67,174.09,175.57,176.28,177.91,176.28Z" fill="#f5af29"/><path d="M206.76,167.36c0-2.7-1.9-4.88-4.24-4.88h-6.65c-2.33,0-4.24,2.19-4.24,4.88v4.05c0,2.68,1.9,4.87,4.24,4.87h6.65c2.33,0,4.24-2.19,4.24-4.87Z" fill="#f5af29"/><path d="M209.6,171.41c0,2.68,1.9,4.87,4.23,4.87h6.65c2.33,0,4.24-2.19,4.24-4.87v-4.05c0-2.7-1.91-4.88-4.24-4.88h-6.65c-2.33,0-4.23,2.19-4.23,4.88Z" fill="#f5af29"/><path d="M236.77,162.48h-5c-2.34,0-4.24,2.19-4.24,4.88v4.05c0,2.68,1.9,4.87,4.24,4.87h6.64c2.34,0,4.24-2.19,4.24-4.87v-4.05c0-2.7-1.89-4.88-4.24-4.88Z" fill="#f5af29"/><path d="M179.59,159.64h6.28a4.17,4.17,0,0,0,3.92-4.36v-3.73a4.18,4.18,0,0,0-3.92-4.38h-6.28a4.18,4.18,0,0,0-3.92,4.38v3.73A4.17,4.17,0,0,0,179.59,159.64Z" fill="#f5af29"/><path d="M206.76,151.55a4.17,4.17,0,0,0-3.92-4.38h-6.29a4.19,4.19,0,0,0-3.92,4.38v3.73a4.17,4.17,0,0,0,3.92,4.36h6.29a4.16,4.16,0,0,0,3.92-4.36Z" fill="#f5af29"/><path d="M209.6,155.28a4.15,4.15,0,0,0,3.92,4.36h6.27a4.17,4.17,0,0,0,3.94-4.36v-3.73a4.18,4.18,0,0,0-3.94-4.38h-6.27a4.17,4.17,0,0,0-3.92,4.38Z" fill="#f5af29"/><path d="M235.08,147.18h-4.59a4.17,4.17,0,0,0-3.92,4.38v3.73a4.16,4.16,0,0,0,3.92,4.36h6.28a4.16,4.16,0,0,0,3.92-4.36v-3.73a4.17,4.17,0,0,0-3.92-4.38Z" fill="#f5af29"/><path d="M181.27,144.35h5.91c2,0,3.6-1.9,3.6-4.22v-3.65c0-2.33-1.6-4.22-3.6-4.22h-5.91c-2,0-3.62,1.89-3.62,4.22v3.65C177.65,142.45,179.29,144.35,181.27,144.35Z" fill="#f5af29"/><path d="M206.76,136.48c0-2.33-1.61-4.22-3.6-4.22h-5.91c-2,0-3.6,1.89-3.6,4.22v3.65c0,2.32,1.61,4.22,3.6,4.22h5.91c2,0,3.6-1.9,3.6-4.22Z" fill="#f5af29"/><path d="M209.6,140.13c0,2.32,1.61,4.22,3.6,4.22h5.9c2,0,3.62-1.9,3.62-4.22v-3.65c0-2.33-1.62-4.22-3.62-4.22h-5.9c-2,0-3.6,1.89-3.6,4.22Z" fill="#f5af29"/><path d="M229.18,132.26c-2,0-3.62,1.89-3.62,4.22v3.65c0,2.32,1.62,4.22,3.62,4.22h5.9c2,0,3.62-1.9,3.62-4.22v-3.65c0-2.33-1.62-4.22-3.62-4.22Z" fill="#f5af29"/><path d="M184,128.83h5.32a3.23,3.23,0,0,0,3.1-3.33v-3.07a3.24,3.24,0,0,0-3.1-3.33H184a3.23,3.23,0,0,0-3.11,3.33v3.07A3.23,3.23,0,0,0,184,128.83Z" fill="#f5af29"/><path d="M206.76,122.44a3.22,3.22,0,0,0-3.1-3.33h-5.31a3.23,3.23,0,0,0-3.1,3.33v3.07a3.23,3.23,0,0,0,3.1,3.33h5.31a3.22,3.22,0,0,0,3.1-3.33Z" fill="#f5af29"/><path d="M218,128.83a3.22,3.22,0,0,0,3.1-3.33v-3.07a3.23,3.23,0,0,0-3.1-3.33h-5.3a3.22,3.22,0,0,0-3.11,3.33v3.07a3.22,3.22,0,0,0,3.11,3.33Z" fill="#f5af29"/><path d="M224,122.44v3.07a3.22,3.22,0,0,0,3.09,3.33h5.31a3.22,3.22,0,0,0,3.09-3.33v-3.07a3.23,3.23,0,0,0-3.09-3.33H227A3.23,3.23,0,0,0,224,122.44Z" fill="#f5af29"/><path d="M188.21,115.63h4.36c1.25,0,2.31-1.4,2.31-3.06v-2.89c0-1.66-1.06-3.07-2.31-3.07h-4.36c-1.26,0-2.31,1.4-2.31,3.07v2.89C185.89,114.23,187,115.63,188.21,115.63Z" fill="#f5af29"/><path d="M200,115.63h4.36c1.26,0,2.3-1.4,2.3-3.06v-2.89c0-1.66-1-3.07-2.3-3.07H200c-1.26,0-2.31,1.4-2.31,3.07v2.89C197.71,114.23,198.77,115.63,200,115.63Z" fill="#f5af29"/><path d="M211.84,115.63h4.36c1.25,0,2.31-1.4,2.31-3.06v-2.89c0-1.66-1.06-3.07-2.31-3.07h-4.36c-1.26,0-2.31,1.4-2.31,3.07v2.89C209.53,114.23,210.58,115.63,211.84,115.63Z" fill="#f5af29"/><path d="M221.35,109.68v2.89c0,1.66,1,3.06,2.3,3.06H228c1.25,0,2.31-1.4,2.31-3.06v-2.89c0-1.66-1.06-3.07-2.31-3.07h-4.37C222.4,106.61,221.35,108,221.35,109.68Z" fill="#f5af29"/><path d="M192.32,103h3.48a1.66,1.66,0,0,0,1.53-1.77V99.18a1.66,1.66,0,0,0-1.53-1.76h-3.48a1.66,1.66,0,0,0-1.53,1.76v2.06A1.67,1.67,0,0,0,192.32,103Z" fill="#f5af29"/><path d="M201.69,103h3.46a1.66,1.66,0,0,0,1.53-1.77V99.18a1.66,1.66,0,0,0-1.53-1.76h-3.46a1.66,1.66,0,0,0-1.53,1.76v2.06A1.66,1.66,0,0,0,201.69,103Z" fill="#f5af29"/><path d="M211.06,103h3.47a1.68,1.68,0,0,0,1.53-1.77V99.18a1.67,1.67,0,0,0-1.53-1.76h-3.47a1.66,1.66,0,0,0-1.53,1.76v2.06A1.66,1.66,0,0,0,211.06,103Z" fill="#f5af29"/><path d="M220.44,103h3.46a1.67,1.67,0,0,0,1.53-1.77V99.18a1.66,1.66,0,0,0-1.53-1.76h-3.46a1.66,1.66,0,0,0-1.54,1.76v2.06A1.66,1.66,0,0,0,220.44,103Z" fill="#f5af29"/><path d="M246.68,217.24a4.88,4.88,0,0,0-4.87-4.88h-7.39a4.88,4.88,0,0,0-4.88,4.88v4.07a4.88,4.88,0,0,0,4.88,4.87h7.39a4.87,4.87,0,0,0,4.87-4.87Z" fill="#f5af29"/><path d="M246.68,233.88a4.88,4.88,0,0,0-4.87-4.88h-7.39a4.88,4.88,0,0,0-4.88,4.88v4a4.88,4.88,0,0,0,4.88,4.88h7.39a4.87,4.87,0,0,0,4.87-4.88Z" fill="#f5af29"/><path d="M234.42,262.26a4.89,4.89,0,0,0-4.88,4.88v4a4.87,4.87,0,0,0,3,4.5,50.4,50.4,0,0,1,10.37-13.28,4.51,4.51,0,0,0-1.13-.14Z" fill="#f5af29"/><path d="M206.76,333.68a4.87,4.87,0,0,0-4.85-4.88h-3.37c1,4.75,2.11,9.36,3.15,13.8h.22a4.87,4.87,0,0,0,4.85-4.88Z" fill="#f5af29"/><path d="M215.53,331.39c.16-.85.33-1.72.51-2.59h-1.57a4.88,4.88,0,0,0-4.87,4.88v4a4.87,4.87,0,0,0,3.77,4.75C214.09,338.94,214.79,335.28,215.53,331.39Z" fill="#f5af29"/><path d="M202.36,345.46c1,4.27,2,8.37,3,12.26a4.82,4.82,0,0,0,1.36-3.35V350.3A4.86,4.86,0,0,0,202.36,345.46Z" fill="#f5af29"/><path d="M209.6,350.3v4.07a4.86,4.86,0,0,0,.65,2.43c.86-3.67,1.66-7.3,2.46-11A4.85,4.85,0,0,0,209.6,350.3Z" fill="#f5af29"/><path d="M133.43,195.93c26.6,39.36,26.85,101.6,26.85,101.6.47,12.23,1,24.86,1.77,38.32,1.57,26.27,10.57,45.22,26.07,54.76l1.18.68h11.39c2-6.49,3.71-12.24,5.2-17.54C200.59,353.58,193,324.08,188,292.14c-7-44.95-27.74-72.25-37.24-82.71C140.53,199.13,133.43,195.93,133.43,195.93Z" fill="#89914f"/><path d="M188.75,414.58h38.87V394.84H188.75Z" fill="#89914f"/><path d="M248.52,269.44l0,.2c1.67.11,3.05.27,4,.4C251.19,269.82,249.87,269.59,248.52,269.44Z" fill="#f5af29"/><path d="M234.42,259.42h7.39a4.87,4.87,0,0,0,4.87-4.87V250.5a4.88,4.88,0,0,0-4.87-4.87h-7.39a4.88,4.88,0,0,0-4.88,4.87v4.05A4.87,4.87,0,0,0,234.42,259.42Z" fill="#f5af29"/><path d="M237.89,274.08c-9.21,13.89-14.6,35.3-18.86,58a474.8,474.8,0,0,1-14.64,59.24h23.55a21,21,0,0,0,5-4l0,0,0,0C248.23,372,250.28,347,252.07,325c.53-6.71,1.06-13,1.9-19,2.25-15.88,4.74-27.75,5.37-30.71a65.23,65.23,0,0,0-7.4-1.79A32.36,32.36,0,0,0,237.89,274.08Z" fill="#89914f"/><path d="M287.43,269.44c-5-6.83-12.28-11.59-23.93-11.27-9.28.24-16.57,4.55-22.47,11.66a64.36,64.36,0,0,1,6.49-.33,38.36,38.36,0,0,1,6.25.78c23.36,4.65,33.71,20,37.63,28.16a50.5,50.5,0,0,0,1.23-10.72C292.63,280.29,291.16,274.51,287.43,269.44Z" fill="#89914f"/><path d="M312.31,223.33v-2.58a3.1,3.1,0,0,1,3.1-3.09h4.69a3.11,3.11,0,0,1,3.1,3.09v2.58a3.1,3.1,0,0,1-3.1,3.1h-4.69A3.1,3.1,0,0,1,312.31,223.33Z" fill="#f5af29"/><path d="M315.41,237h4.69a3.1,3.1,0,0,0,3.1-3.09v-2.6a3.12,3.12,0,0,0-3.1-3.09h-4.69a3.11,3.11,0,0,0-3.1,3.09v2.6A3.09,3.09,0,0,0,315.41,237Z" fill="#f5af29"/><path d="M323.21,241.92a3.12,3.12,0,0,0-3.1-3.12h-4.69a3.09,3.09,0,0,0-2.52,1.32c1.31,2.26,2.62,4.75,3.9,7.47h3.31a3.11,3.11,0,0,0,3.1-3.11Z" fill="#f5af29"/><path d="M323.21,252.5a3.1,3.1,0,0,0-3.1-3.1h-2.48q1.81,4,3.43,8.63a3.1,3.1,0,0,0,2.15-2.95Z" fill="#f5af29"/><path d="M321.92,260.57c.45,1.39.88,2.82,1.28,4.29v-1.77A3.11,3.11,0,0,0,321.92,260.57Z" fill="#f5af29"/><path d="M335.9,220.75a3.09,3.09,0,0,0-3.09-3.09h-4.7a3.1,3.1,0,0,0-3.09,3.09v2.58a3.1,3.1,0,0,0,3.09,3.1h4.7a3.09,3.09,0,0,0,3.09-3.1Z" fill="#f5af29"/><path d="M335.9,231.32a3.1,3.1,0,0,0-3.09-3.09h-4.7a3.11,3.11,0,0,0-3.09,3.09v2.6A3.1,3.1,0,0,0,328.1,237h4.7a3.09,3.09,0,0,0,3.09-3.09Z" fill="#f5af29"/><path d="M335.9,241.92a3.11,3.11,0,0,0-3.09-3.12h-4.7a3.11,3.11,0,0,0-3.09,3.12v2.57a3.11,3.11,0,0,0,3.09,3.11h4.7a3.1,3.1,0,0,0,3.09-3.11Z" fill="#f5af29"/><path d="M335.9,252.5a3.09,3.09,0,0,0-3.09-3.1h-4.7a3.1,3.1,0,0,0-3.09,3.1v2.58a3.1,3.1,0,0,0,3.09,3.1h4.7a3.09,3.09,0,0,0,3.09-3.1Z" fill="#f5af29"/><path d="M335.9,263.09a3.09,3.09,0,0,0-3.09-3.1h-4.7a3.1,3.1,0,0,0-3.09,3.1v2.58a3.09,3.09,0,0,0,3.09,3.09h4.7a3.08,3.08,0,0,0,3.09-3.09Z" fill="#f5af29"/><path d="M335.9,273.67a3.1,3.1,0,0,0-3.09-3.1h-4.7a3.13,3.13,0,0,0-3,2.23c.39,1.9.75,3.86,1.07,5.85a.06.06,0,0,0,0,0,3,3,0,0,0,1.9.67h4.7a3.08,3.08,0,0,0,3.09-3.1Z" fill="#f5af29"/><path d="M335.9,284.27a3.11,3.11,0,0,0-3.09-3.12h-4.7a3,3,0,0,0-1.44.38c.45,2.84,1,5.65,1.48,8.41h4.66a3.1,3.1,0,0,0,3.09-3.09Z" fill="#f5af29"/><path d="M335.9,294.83a3.09,3.09,0,0,0-3.09-3.09h-4.31c.57,3,1.18,5.93,1.79,8.78h2.53a3.09,3.09,0,0,0,3.09-3.09Z" fill="#f5af29"/><path d="M348.6,220.75a3.1,3.1,0,0,0-3.1-3.09h-4.7a3.1,3.1,0,0,0-3.09,3.09v2.58a3.1,3.1,0,0,0,3.09,3.1h4.7a3.1,3.1,0,0,0,3.1-3.1Z" fill="#f5af29"/><path d="M348.6,231.32a3.11,3.11,0,0,0-3.1-3.09h-4.7a3.11,3.11,0,0,0-3.09,3.09v2.6A3.1,3.1,0,0,0,340.8,237h4.7a3.1,3.1,0,0,0,3.1-3.09Z" fill="#f5af29"/><path d="M348.6,241.92a3.12,3.12,0,0,0-3.1-3.12h-4.7a3.12,3.12,0,0,0-3.09,3.12v2.57a3.11,3.11,0,0,0,3.09,3.11h4.7a3.11,3.11,0,0,0,3.1-3.11Z" fill="#f5af29"/><path d="M348.6,252.5a3.1,3.1,0,0,0-3.1-3.1h-4.7a3.1,3.1,0,0,0-3.09,3.1v2.58a3.1,3.1,0,0,0,3.09,3.1h4.7a3.1,3.1,0,0,0,3.1-3.1Z" fill="#f5af29"/><path d="M348.6,263.09a3.1,3.1,0,0,0-3.1-3.1h-4.7a3.1,3.1,0,0,0-3.09,3.1v2.58a3.09,3.09,0,0,0,3.09,3.09h4.7a3.09,3.09,0,0,0,3.1-3.09Z" fill="#f5af29"/><path d="M348.09,278c.16-.45.32-.87.48-1.3a2.59,2.59,0,0,0,0-.41v-2.58a3.11,3.11,0,0,0-3.1-3.1h-4.7a3.11,3.11,0,0,0-3.09,3.1v2.58a3.09,3.09,0,0,0,3.09,3.1h4.7A3.11,3.11,0,0,0,348.09,278Z" fill="#f5af29"/><path d="M346.88,281.48a3.28,3.28,0,0,0-1.38-.33h-4.7a3.12,3.12,0,0,0-3.09,3.12v2.58a3.11,3.11,0,0,0,3.09,3.09h3.7C345.22,287,346,284.18,346.88,281.48Z" fill="#f5af29"/><path d="M344.05,291.74H340.8a3.1,3.1,0,0,0-3.09,3.09v2.6a3.1,3.1,0,0,0,3.09,3.09h1.35C342.75,297.54,343.38,294.6,344.05,291.74Z" fill="#f5af29"/><path d="M357.14,217.66h-3.63a3.1,3.1,0,0,0-3.1,3.09v2.58a3.1,3.1,0,0,0,3.1,3.1h4.7a3.11,3.11,0,0,0,3.11-3.1v-2.58a3.11,3.11,0,0,0-3.11-3.09Z" fill="#f5af29"/><path d="M316.47,215.85h4.46a3,3,0,0,0,2.9-3.09v-2.59a3,3,0,0,0-2.9-3.09h-4.46a3,3,0,0,0-2.89,3.09v2.59A3,3,0,0,0,316.47,215.85Z" fill="#f5af29"/><path d="M335.9,210.16a3,3,0,0,0-2.89-3.09h-4.47a3,3,0,0,0-2.91,3.09v2.59a3,3,0,0,0,2.91,3.09H333a3,3,0,0,0,2.89-3.09Z" fill="#f5af29"/><path d="M337.71,212.75a3,3,0,0,0,2.9,3.09h4.46a3,3,0,0,0,2.9-3.09v-2.59a3,3,0,0,0-2.9-3.09H340.6a3,3,0,0,0-2.9,3.09Z" fill="#f5af29"/><path d="M356.07,207.07h-3.39a3,3,0,0,0-2.9,3.09v2.59a3,3,0,0,0,2.9,3.09h4.46a3,3,0,0,0,2.89-3.09v-2.59a3,3,0,0,0-2.89-3.09Z" fill="#f5af29"/><path d="M317.55,205.26h4.23a2.91,2.91,0,0,0,2.69-3.09V199.6a2.93,2.93,0,0,0-2.69-3.12h-4.23a2.93,2.93,0,0,0-2.7,3.12v2.57A2.91,2.91,0,0,0,317.55,205.26Z" fill="#f5af29"/><path d="M335.9,199.6a2.93,2.93,0,0,0-2.7-3.12H329a2.93,2.93,0,0,0-2.7,3.12v2.57a2.92,2.92,0,0,0,2.7,3.09h4.23a2.91,2.91,0,0,0,2.7-3.09Z" fill="#f5af29"/><path d="M337.71,202.16a2.92,2.92,0,0,0,2.7,3.09h4.23a2.92,2.92,0,0,0,2.7-3.09V199.6a2.94,2.94,0,0,0-2.7-3.12h-4.23a2.93,2.93,0,0,0-2.7,3.12Z" fill="#f5af29"/><path d="M355,196.48h-3.16a2.93,2.93,0,0,0-2.7,3.12v2.57a2.91,2.91,0,0,0,2.7,3.09h4.23a2.92,2.92,0,0,0,2.7-3.09V199.6a2.93,2.93,0,0,0-2.7-3.12Z" fill="#f5af29"/><path d="M318.61,194.68h4a2.64,2.64,0,0,0,2.5-2.77v-2.38a2.65,2.65,0,0,0-2.5-2.77h-4a2.65,2.65,0,0,0-2.49,2.77v2.38A2.64,2.64,0,0,0,318.61,194.68Z" fill="#f5af29"/><path d="M335.9,189.53a2.65,2.65,0,0,0-2.49-2.77h-4a2.65,2.65,0,0,0-2.5,2.77v2.38a2.65,2.65,0,0,0,2.5,2.77h4a2.64,2.64,0,0,0,2.49-2.77Z" fill="#f5af29"/><path d="M337.71,191.91a2.64,2.64,0,0,0,2.5,2.77h4a2.65,2.65,0,0,0,2.5-2.77v-2.38a2.65,2.65,0,0,0-2.5-2.77h-4a2.65,2.65,0,0,0-2.5,2.77Z" fill="#f5af29"/><path d="M353.92,186.75H351a2.64,2.64,0,0,0-2.49,2.77v2.38a2.64,2.64,0,0,0,2.49,2.77h4a2.64,2.64,0,0,0,2.5-2.77v-2.38a2.64,2.64,0,0,0-2.5-2.77Z" fill="#f5af29"/><path d="M319.69,185h3.76a2.52,2.52,0,0,0,2.3-2.68v-2.33a2.52,2.52,0,0,0-2.3-2.69h-3.76a2.51,2.51,0,0,0-2.3,2.69v2.33A2.51,2.51,0,0,0,319.69,185Z" fill="#f5af29"/><path d="M335.9,179.95a2.51,2.51,0,0,0-2.3-2.69h-3.76a2.52,2.52,0,0,0-2.29,2.69v2.33a2.52,2.52,0,0,0,2.29,2.68h3.76a2.51,2.51,0,0,0,2.3-2.68Z" fill="#f5af29"/><path d="M337.71,182.27A2.52,2.52,0,0,0,340,185h3.76a2.52,2.52,0,0,0,2.31-2.68v-2.33a2.52,2.52,0,0,0-2.31-2.69H340a2.52,2.52,0,0,0-2.29,2.69Z" fill="#f5af29"/><path d="M350.17,177.26a2.52,2.52,0,0,0-2.3,2.69v2.33a2.52,2.52,0,0,0,2.3,2.68h3.75a2.52,2.52,0,0,0,2.3-2.68v-2.33a2.52,2.52,0,0,0-2.3-2.69Z" fill="#f5af29"/><path d="M321.42,175.08h3.39a2.06,2.06,0,0,0,2-2.12v-2a2.06,2.06,0,0,0-2-2.12h-3.39a2.07,2.07,0,0,0-2,2.12v2A2.06,2.06,0,0,0,321.42,175.08Z" fill="#f5af29"/><path d="M335.9,171a2.05,2.05,0,0,0-2-2.12h-3.38a2.07,2.07,0,0,0-2,2.12v2a2.06,2.06,0,0,0,2,2.12h3.38a2,2,0,0,0,2-2.12Z" fill="#f5af29"/><path d="M343.05,175.08a2.06,2.06,0,0,0,2-2.12v-2a2.07,2.07,0,0,0-2-2.12h-3.36a2.06,2.06,0,0,0-2,2.12v2a2.06,2.06,0,0,0,2,2.12Z" fill="#f5af29"/><path d="M346.84,171v2a2.06,2.06,0,0,0,2,2.12h3.37a2.06,2.06,0,0,0,2-2.12v-2a2.07,2.07,0,0,0-2-2.12h-3.37A2.06,2.06,0,0,0,346.84,171Z" fill="#f5af29"/><path d="M324.1,166.67h2.77c.79,0,1.47-.89,1.47-1.94v-1.84c0-1.06-.67-2-1.47-2H324.1c-.8,0-1.48.89-1.48,2v1.84C322.62,165.78,323.3,166.67,324.1,166.67Z" fill="#f5af29"/><path d="M331.61,166.67h2.77c.8,0,1.48-.89,1.48-1.94v-1.84c0-1.06-.67-2-1.48-2h-2.77c-.79,0-1.47.89-1.47,2v1.84C330.14,165.78,330.82,166.67,331.61,166.67Z" fill="#f5af29"/><path d="M339.14,166.67h2.78c.79,0,1.46-.89,1.46-1.94v-1.84c0-1.06-.67-2-1.46-2h-2.78c-.8,0-1.47.89-1.47,2v1.84C337.67,165.78,338.33,166.67,339.14,166.67Z" fill="#f5af29"/><path d="M345.19,162.89v1.84c0,1.06.67,1.94,1.46,1.94h2.78c.79,0,1.47-.89,1.47-1.94v-1.84c0-1.06-.67-2-1.47-2h-2.78C345.86,160.93,345.19,161.82,345.19,162.89Z" fill="#f5af29"/><path d="M326.72,158.64h2.2a1.06,1.06,0,0,0,1-1.14V156.2a1.06,1.06,0,0,0-1-1.11h-2.2a1,1,0,0,0-1,1.11v1.31A1,1,0,0,0,326.72,158.64Z" fill="#f5af29"/><path d="M332.67,158.64h2.21a1.06,1.06,0,0,0,1-1.14V156.2a1.06,1.06,0,0,0-1-1.11h-2.21a1,1,0,0,0-1,1.11v1.31A1.05,1.05,0,0,0,332.67,158.64Z" fill="#f5af29"/><path d="M338.64,158.64h2.21a1.06,1.06,0,0,0,1-1.14V156.2a1.06,1.06,0,0,0-1-1.11h-2.21a1,1,0,0,0-1,1.11v1.31A1.05,1.05,0,0,0,338.64,158.64Z" fill="#f5af29"/><path d="M344.6,158.64h2.21a1.06,1.06,0,0,0,1-1.14V156.2a1.06,1.06,0,0,0-1-1.11H344.6a1.05,1.05,0,0,0-1,1.11v1.31A1.06,1.06,0,0,0,344.6,158.64Z" fill="#f5af29"/><path d="M361.31,231.32a3.12,3.12,0,0,0-3.11-3.09h-4.7a3.11,3.11,0,0,0-3.1,3.09v2.6a3.1,3.1,0,0,0,3.1,3.09h4.7a3.1,3.1,0,0,0,3.11-3.09Z" fill="#f5af29"/><path d="M361.31,241.92a3.12,3.12,0,0,0-3.11-3.12h-4.7a3.12,3.12,0,0,0-3.1,3.12v2.57a3.11,3.11,0,0,0,3.1,3.11h4.7a3.12,3.12,0,0,0,3.11-3.11Z" fill="#f5af29"/><path d="M353.51,260a3.1,3.1,0,0,0-3.1,3.1v2.58a3.08,3.08,0,0,0,1.92,2.86,32.32,32.32,0,0,1,6.59-8.45,3,3,0,0,0-.72-.08Z" fill="#f5af29"/><path d="M335.9,305.43a3.09,3.09,0,0,0-3.09-3.1h-2.14q1,4.52,2,8.78h.13a3.1,3.1,0,0,0,3.09-3.1Z" fill="#f5af29"/><path d="M341.48,304c.11-.55.21-1.1.31-1.65h-1a3.1,3.1,0,0,0-3.09,3.1V308a3.09,3.09,0,0,0,2.41,3C340.57,308.77,341,306.45,341.48,304Z" fill="#f5af29"/><path d="M333.1,312.93q1,4.09,1.93,7.8a3.06,3.06,0,0,0,.87-2.14V316A3.09,3.09,0,0,0,333.1,312.93Z" fill="#f5af29"/><path d="M337.71,316v2.59a3.07,3.07,0,0,0,.42,1.55c.55-2.33,1.06-4.64,1.56-7A3.08,3.08,0,0,0,337.71,316Z" fill="#f5af29"/><path d="M289.24,217.78c16.92,25,17.08,64.66,17.08,64.66.3,7.77.61,15.82,1.13,24.38,1,16.73,6.73,28.78,16.58,34.85.26.15.5.3.75.43H332c1.28-4.12,2.36-7.78,3.3-11.16C332,318.1,327.13,299.32,324,279c-4.46-28.61-17.65-46-23.7-52.65C293.76,219.81,289.24,217.78,289.24,217.78Z" fill="#89914f"/><path d="M324.43,356.92h24.74V344.36H324.43Z" fill="#89914f"/><path d="M362.48,264.55l0,.12a25.39,25.39,0,0,1,2.54.27C364.18,264.78,363.34,264.65,362.48,264.55Z" fill="#f5af29"/><path d="M353.51,258.19h4.7a3.11,3.11,0,0,0,3.11-3.1V252.5a3.11,3.11,0,0,0-3.11-3.1h-4.7a3.1,3.1,0,0,0-3.1,3.1v2.58A3.1,3.1,0,0,0,353.51,258.19Z" fill="#f5af29"/><path d="M355.71,267.5c-5.86,8.85-9.28,22.47-12,36.91a298.25,298.25,0,0,1-9.32,37.69h15a13.89,13.89,0,0,0,3.2-2.57v0h0c9.67-9.66,11-25.57,12.11-39.57.35-4.27.67-8.29,1.21-12.08,1.43-10.1,3-17.63,3.42-19.54a39.9,39.9,0,0,0-4.71-1.14A20.77,20.77,0,0,0,355.71,267.5Z" fill="#89914f"/><path d="M387.24,264.55c-3.21-4.35-7.81-7.37-15.24-7.18-5.91.16-10.55,2.9-14.3,7.42,1.67-.21,4.14-.21,4.14-.21a25.12,25.12,0,0,1,4,.49c14.86,3,21.44,12.72,23.94,17.93a32.35,32.35,0,0,0,.78-6.83C390.55,271.46,389.62,267.78,387.24,264.55Z" fill="#89914f"/></svg>