<svg id="Layer_1" data-name="Layer 1" xmlns="http://www.w3.org/2000/svg" viewBox="0 0 512 512"><title>happy-thanksgiving</title><path d="M256,0C114.61,0,0,114.61,0,256S114.61,512,256,512,512,397.39,512,256,397.39,0,256,0Z" fill="#ec582d"/><path d="M197.56,178.73l14.11-30.62H199.84l-5.08,11.09c-23.35,50.53-64.08,19.15-49.6-11.94,5.31-11.38,13.28-11.85,13.28-11.85l1.43,7.3s-5.54,1.79-8.72,8.62c-10.24,22,19.49,43,37.68,3.51l16-34.69c-8.49,5.4-22,5.69-25.64,13.55-3.86,8.25,3,11.76,3,11.76l-3,6.35c-5.23-2.57-11.28-10.53-6.22-21.62,6.45-14,23.81-9,37.69-22.75l4,8.62L202,143.36h11.83l11.22-24.17c9.25-19.91,21.91-12.61,23.58-4.65l-5.23,3.61c-2.27-6.45-7.43-5.41-11.83,4.07l-26.08,56.51Z" fill="#feeac5"/><path d="M262.7,158.06a7.65,7.65,0,0,1,3,3.41c-6.51,9.48-14,18.2-20.54,18.2-4,0-6.44-2.65-6.83-6.45-3.78,3.89-7.73,6.45-10.91,6.45-6.37,0-8.72-6.73-5.38-14l11.07-23.89c3.34-7.2,9.25-11.37,13.5-11.37,5.15,0,8.57,5.78,8.27,10h4.48l-12.75,27.87c-1.82,3.89-.84,5.4.9,5.4,3.49,0,9-6.54,14.72-14.79Zm-33.9,10.15c-1.81,3.89-.82,5.4.92,5.4,3.26,0,8-4.45,12.73-13.84l6.15-13.46c3.87-8.91-4.55-11.28-8.79-2.09Z" fill="#feeac5"/><path d="M243.61,199.58l31.46-68.26H283l-1.59,3.41c8-9,19.94-3.79,12.58,11.85l-8.72,18.68c-1,2.08-2,4.84-3.26,7.39,4.78-2.09,10-7.39,14.41-13.84l.53-.76a5.54,5.54,0,0,1,3,3.41c-6.44,9.38-13.94,17.92-25.39,18.2H274c-7.2,0-8.64-8-8.64-8l4.47-2.65c1.44,3.7,4.4,2.85,5.69,0l11.9-25.79c2.06-4.46-3.48-10-12.28,5l-23.58,51.29Z" fill="#feeac5"/><path d="M277.8,199.58l31.47-68.26h7.88l-1.6,3.41c8-9,19.95-3.79,12.59,11.85l-8.72,18.68c-1,2.08-2,4.84-3.26,7.39,4.78-2.09,10-7.39,14.41-13.84l.53-.76a5.64,5.64,0,0,1,3,3.41c-6.45,9.38-14,17.92-25.41,18.2h-.45c-7.2,0-8.64-8-8.64-8l4.47-2.65c1.43,3.7,4.39,2.85,5.69,0l11.89-25.79c2.05-4.46-3.48-10-12.28,5l-23.58,51.29Z" fill="#feeac5"/><path d="M347.26,161.66l14-30.34h7.89l-21.61,46.27c6.22-3.31,11.74-9.38,18.27-18.77l.54-.76a7.73,7.73,0,0,1,3,3.41C360.61,174,352.56,181,344.38,184.22l-6.07,13c-5.69,12.13-17.3,10.14-17.3.67,0-7.4,6.68-12.9,17.37-16.88l4.33-9.29c-3.57,4-7.89,8-11.68,8-5.24,0-7.06-6.16-3-14.89l15.48-33.47h7.88L336,164.89c-1,2.09-3,5.78-1,6.82C336.49,172.56,341.19,168.68,347.26,161.66ZM331.71,195.6l3.64-8c-6.05,2.94-8,5.88-8,8.43S330,199.3,331.71,195.6Z" fill="#feeac5"/><path d="M66.91,255.69c-5.39,6.82-2.87,14.79,4.47,14.79,5.68,0,10.16-5.78,14-14l22.45-49a22.49,22.49,0,0,1-12.21,3.7c-2,0-6.83-.38-8.64-.38-6.76,0-11.38,5.12-11.38,10.34a8.81,8.81,0,0,0,3.8,7.67l-3.87,6.07c-4.25-2.84-6.29-7.77-6.29-12.8,0-10.9,8-18.87,19.42-18.87,1.66,0,6.14.1,7.88.1,8.42,0,15.48-4.84,15.48-4.84l4.09,8.63H116L92.32,258.35c-6.67,14.41-14,19.9-21.84,19.9-11.91,0-18-16.4-7.81-27.68Z" fill="#feeac5"/><path d="M142.89,249.05a7.73,7.73,0,0,1,3,3.42c-6.51,9.48-14,18.2-20.54,18.2-6.37,0-8.72-6.73-5.38-14l10.23-22.28c3.41-7.3-2-9.76-14.11,9.29l-12,26.07h-8l31.47-68.26h7.88l-12.58,27.4c3.94-5.12,7.57-7.49,11-7.49,4.4,0,7.66,5.4,4.25,12.89L126.74,259.2c-1.82,3.89-.84,5.4.91,5.4,3.49,0,9-6.54,14.71-14.79Z" fill="#feeac5"/><path d="M180.12,249.05a7.66,7.66,0,0,1,3,3.42c-6.51,9.48-14,18.2-20.54,18.2-4,0-6.44-2.65-6.83-6.45-3.78,3.89-7.73,6.45-10.91,6.45-6.37,0-8.72-6.73-5.39-14l11.08-23.89c3.33-7.21,9.24-11.38,13.48-11.38,5.17,0,8.57,5.78,8.27,10h4.47L164,259.2c-1.8,3.89-.82,5.4.92,5.4,3.5,0,9-6.54,14.71-14.79ZM146.24,259.2c-1.83,3.89-.84,5.4.91,5.4,3.26,0,8-4.45,12.74-13.84L166,237.3c3.87-8.91-4.55-11.28-8.79-2.09Z" fill="#feeac5"/><path d="M217.36,249.05a7.84,7.84,0,0,1,3,3.42c-6.52,9.48-14,18.2-20.56,18.2-6.36,0-8.72-6.73-5.38-14l10.24-22.28c3.41-7.3-2-9.76-14,9.1l-12.06,26.26h-8l21.92-47.4h7.88l-3,6.44c3.94-5.12,7.51-7.39,10.91-7.39,4.4,0,7.66,5.4,4.25,12.89L201.21,259.2c-1.82,3.89-.83,5.4.91,5.4,3.49,0,9-6.54,14.71-14.79Z" fill="#feeac5"/><path d="M207.8,269.72l31.47-68.26h7.88l-11.21,24.37c8-9.2,20-4,12.66,11.75l-2.12,4.55c-3.72,8.05-9.55,12.61-15.09,11.76V258c0,4.46,1.67,6.64,3.41,6.64,3.48,0,9-6.54,14.71-14.79l.53-.76a7.77,7.77,0,0,1,3,3.42c-6.52,9.48-14,18.2-20.55,18.2-6.37,0-7.66-4.26-7.66-12.7V250.1l-9,19.63Zm34.28-35.46c2.82-6-3.41-10.33-12.51,5.5l-2.28,4.93c1.75,6.45,8.65,2.84,11-2.28Z" fill="#feeac5"/><path d="M246.64,262.71l4.93-3.22s1.05,3.61,3.72,3.61c7.5,0,5.83-18.39,8.94-28.63-2.81,4.65-6.75,11.57-11.23,18a12.89,12.89,0,0,1-3-3.42c7.13-10.42,14.26-23.32,17.51-28.91l5.91,4c-4.85,12.61-4.31,27-6.82,36.4a55.51,55.51,0,0,0,9.48-10.72l.53-.76a5.64,5.64,0,0,1,3,3.42c-5.91,8.63-13.87,16.59-21.91,17.92-.08,0-.15.09-.23.09a17.14,17.14,0,0,1-2.19.19C248.07,270.67,246.64,262.71,246.64,262.71Z" fill="#feeac5"/><path d="M283.87,272l2.19-4.64c-2.65,2.09-5.31,3.32-7.51,3.32-6.36,0-8.72-6.73-5.38-14l11.07-23.89c3.33-7.21,9.25-11.38,13.5-11.38,4.92,0,8.27,5.4,8.27,9.48h4.63L293,268.59c6.22-3.32,11.83-9.39,18.35-18.77l.53-.76a7.76,7.76,0,0,1,3,3.42c-8.64,12.61-16.68,19.53-24.94,22.76l-6,13c-5.69,12.13-17.3,10.15-17.3.66C266.57,281.48,273.25,276.08,283.87,272Zm-6.61,14.6,3.57-8c-6,2.94-7.89,5.88-7.89,8.43S275.6,290.29,277.26,286.6ZM280,259.2c-1.82,3.89-.84,5.4.91,5.4,3.33,0,8.11-4.64,12.89-14.22l6-13.08c3.87-8.91-4.55-11.28-8.81-2.09Z" fill="#feeac5"/><path d="M331.34,249.05a7.83,7.83,0,0,1,3,3.42c-6.52,9.48-14,18.2-20.55,18.2s-8.72-6.73-5.39-14l15.85-34.32h7.89L315.19,259.2c-1.82,3.89-.84,5.4.91,5.4,3.48,0,9-6.54,14.71-14.79Zm1.75-43.22c2.57,0,4.63,2.56,4.63,5.78s-2.06,5.68-4.63,5.68-4.55-2.46-4.55-5.68S330.5,205.83,333.08,205.83Z" fill="#feeac5"/><path d="M347.87,222.32l-10.54,32.9c-3,9.48-2.5,9.29,2.27.28l17.67-33.18h7.12l-12.82,23.89c-4.17,10.62,3.26,9.39,7.51,3.61l.54-.76a7.93,7.93,0,0,1,3,3.42c-6.53,9.58-13.81,8.25-15.93,2.94l-4.09,7.68c-6.15,11.56-19,9.86-13.65-6.54l11-34.23Z" fill="#feeac5"/><path d="M379.11,249.05a7.75,7.75,0,0,1,3,3.42c-6.52,9.48-14,18.2-20.55,18.2-6.37,0-8.72-6.73-5.39-14L372,222.32h7.88L363,259.2c-1.82,3.89-.82,5.4.92,5.4,3.49,0,9-6.54,14.71-14.79Zm1.75-43.22c2.58,0,4.63,2.56,4.63,5.78s-2,5.68-4.63,5.68-4.55-2.46-4.55-5.68S378.28,205.83,380.85,205.83Z" fill="#feeac5"/><path d="M416.34,249.05a7.83,7.83,0,0,1,3,3.42c-6.51,9.48-14,18.2-20.56,18.2-6.36,0-8.72-6.73-5.37-14l10.23-22.28c3.42-7.3-2-9.76-14,9.1l-12,26.26h-8l21.91-47.4h7.89l-3,6.44c3.93-5.12,7.5-7.39,10.91-7.39,4.4,0,7.66,5.4,4.25,12.89L400.19,259.2c-1.82,3.89-.83,5.4.92,5.4,3.48,0,9-6.54,14.7-14.79Z" fill="#feeac5"/><path d="M423.54,272l2.2-4.64c-2.65,2.09-5.3,3.32-7.5,3.32-6.37,0-8.72-6.73-5.39-14l11.07-23.89c3.34-7.21,9.26-11.38,13.5-11.38,4.94,0,8.27,5.4,8.27,9.48h4.63l-17.67,37.73c6.21-3.32,11.82-9.39,18.34-18.77l.54-.76a7.82,7.82,0,0,1,3,3.42c-8.64,12.61-16.68,19.53-25,22.76l-6,13c-5.69,12.13-17.29,10.15-17.29.66C406.26,281.48,412.93,276.08,423.54,272ZM417,286.6l3.56-8c-6,2.94-7.88,5.88-7.88,8.43S415.28,290.29,417,286.6Zm2.73-27.4c-1.82,3.89-.83,5.4.91,5.4,3.33,0,8.11-4.64,12.88-14.22l6-13.08c3.87-8.91-4.55-11.28-8.79-2.09Z" fill="#feeac5"/><g id="_38" data-name="38"><path d="M231.63,404.44l-7.69-21.12s.76-3.57,1.7-3.49l29,2.33s-8.49-10.28-9.86-11.83-2.56-3.7-1.1-5.8,16.19-25.37,16.19-25.37-4.29-.24-5.5-.37c-1.79-.17-2.09-2-2.13-2.66s-1-15.86-1-15.86-9.91,6.29-11.82,7.4c-1.67,1-2.26.28-2.7-.14-.85-.83-5.24-5.4-5.24-5.4s-5.13,13.22-6.36,16.16c-1,2.38-3.53,1.77-3.85-.46s-3.91-27.6-3.91-27.6-4.7,5.34-6,7.06-2.37,1.44-3.31.59-14.63-13.3-14.63-13.3-2.51,18.34-2.68,19.6-.85,2.19-2.92,1.68-9.1-1.58-9.1-1.58,13.64,21.85,14.75,23.65-.37,4-2.66,2.83c-2.83-1.46-15.25-8.29-15.25-8.29s-.43,6.32-.56,7.51c-.07.61-.09,1.5-2,1.84-2.16.39-13.81,1.93-13.81,1.93l9.47,12.76c.43.56,1.35,2.13.09,3.4-.85.87-4,3.82-4,3.82s26.12,8.32,28.7,9,2.95,3.07,2.91,5.15,0,15.41,0,15.41l20.7-20.41c.66-.67,3.53,1.58,3.53,1.58l7.69,21.12" fill="#f5af29"/></g><g id="_38-2" data-name="38"><path d="M293.65,404.44l7.68-21.12s-.74-3.57-1.69-3.49l-29,2.33s8.49-10.28,9.86-11.83,2.56-3.7,1.1-5.8-16.21-25.37-16.21-25.37,4.31-.24,5.51-.37c1.79-.17,2.08-2,2.12-2.66s1-15.86,1-15.86,9.91,6.29,11.83,7.4c1.65,1,2.26.28,2.7-.14.85-.83,5.24-5.4,5.24-5.4s5.13,13.22,6.36,16.16c1,2.38,3.53,1.77,3.86-.46l3.9-27.6s4.7,5.34,6,7.06,2.36,1.44,3.32.59,14.63-13.3,14.63-13.3,2.51,18.34,2.67,19.6.85,2.19,2.91,1.68,9.1-1.58,9.1-1.58-13.64,21.85-14.75,23.65.37,4,2.65,2.83c2.84-1.46,15.26-8.29,15.26-8.29s.42,6.32.55,7.51c.06.61.08,1.5,2,1.84,2.16.39,13.79,1.93,13.79,1.93l-9.46,12.76c-.42.56-1.34,2.13-.09,3.4.86.87,4,3.82,4,3.82s-26.11,8.32-28.71,9-2.93,3.07-2.9,5.15-.05,15.41-.05,15.41l-20.7-20.41c-.67-.67-3.54,1.58-3.54,1.58l-7.69,21.12" fill="#642d10"/></g></svg>