<svg id="Layer_1" data-name="Layer 1" xmlns="http://www.w3.org/2000/svg" viewBox="0 0 512 512"><title>cloud-rain</title><path d="M0,256C0,114.61,114.61,0,256,0S512,114.63,512,256,397.38,512,256,512,0,397.39,0,256Z" fill="#0086cd"/><path d="M340.73,182.44c-4.31-37.19-36.57-66.09-75.76-66.09-39.48,0-72,29.31-75.89,66.89a62.54,62.54,0,0,0-11.62-1.1c-33.46,0-60.57,25.64-60.57,58.34s27.11,58.35,60.57,58.35H334.52c33.46,0,60.58-25.66,60.58-58.35C395.11,209.82,371.28,185.48,340.73,182.44Z" fill="#fff"/><path d="M203.34,365.61l-.12-.32c-.4-1-22-46.6-22-46.6s-21.56,45.58-22,46.58l-.13.34a21.63,21.63,0,0,0-1.39,7.56c0,12.41,10.51,22.48,23.47,22.48s23.47-10.06,23.47-22.48A21.38,21.38,0,0,0,203.34,365.61Z" fill="#fff"/><path d="M280.31,365.61l-.12-.32c-.42-1-22-46.6-22-46.6s-21.56,45.58-21.94,46.58l-.13.34a21.4,21.4,0,0,0-1.39,7.56c0,12.41,10.5,22.48,23.46,22.48s23.47-10.06,23.47-22.48A21.63,21.63,0,0,0,280.31,365.61Z" fill="#fff"/><path d="M357.29,365.61l-.13-.32c-.39-1-22-46.6-22-46.6s-21.55,45.58-22,46.58l-.13.34a21.65,21.65,0,0,0-1.39,7.56c0,12.41,10.51,22.48,23.47,22.48s23.47-10.06,23.47-22.48A21.38,21.38,0,0,0,357.29,365.61Z" fill="#fff"/></svg>